<svg width="17" height="17" viewBox="0 0 17 17" fill="none" xmlns="http://www.w3.org/2000/svg">
<path d="M13.4838 8.89196C13.5762 8.63172 13.4401 8.34589 13.1798 8.25354C12.9196 8.1612 12.6337 8.29731 12.5414 8.55755L13.4838 8.89196ZM11.424 13.2018L11.8952 13.369L11.8952 13.369L11.424 13.2018ZM10.3525 14.1295L10.4506 14.6198L10.4506 14.6198L10.3525 14.1295ZM1 16L0.507936 15.9113C0.478567 16.0741 0.53169 16.241 0.649819 16.3569C0.767948 16.4728 0.935776 16.5227 1.09806 16.4903L1 16ZM2.70674 6.53536L3.1988 6.6241L3.1988 6.6241L2.70674 6.53536ZM3.69137 5.41985L3.84051 5.89709L3.84051 5.89709L3.69137 5.41985ZM8.42438 4.46463C8.68795 4.38227 8.83485 4.10183 8.75248 3.83825C8.67011 3.57468 8.38968 3.42779 8.1261 3.51015L8.42438 4.46463ZM0.815638 15.4773C0.620376 15.6725 0.620376 15.9891 0.815638 16.1844C1.0109 16.3796 1.32748 16.3796 1.52274 16.1844L0.815638 15.4773ZM5.58335 12.1238C5.77861 11.9285 5.77861 11.6119 5.58335 11.4167C5.38808 11.2214 5.0715 11.2214 4.87624 11.4167L5.58335 12.1238ZM15.7197 5.34093L16.0732 4.98737L16.0732 4.98737L15.7197 5.34093ZM15.7197 6.69446L15.3661 6.3409L15.3661 6.3409L15.7197 6.69446ZM10.3055 1.28033L9.95199 0.926773L9.95199 0.926773L10.3055 1.28033ZM11.6591 1.28033L11.3055 1.63388L11.3055 1.63388L11.6591 1.28033ZM8.61362 4.32578L8.96718 3.97222L8.61362 4.32578ZM8.61362 2.97224L8.96718 3.3258L8.96718 3.3258L8.61362 2.97224ZM12.6742 8.38637L12.3207 8.73993L12.6742 8.38637ZM14.0278 8.38637L14.3813 8.73993L14.3813 8.73993L14.0278 8.38637ZM12.5414 8.55755L10.9528 13.0346L11.8952 13.369L13.4838 8.89196L12.5414 8.55755ZM10.2545 13.6392L0.901942 15.5097L1.09806 16.4903L10.4506 14.6198L10.2545 13.6392ZM1.49206 16.0887L3.1988 6.6241L2.21467 6.44663L0.507936 15.9113L1.49206 16.0887ZM3.84051 5.89709L8.42438 4.46463L8.1261 3.51015L3.54223 4.94261L3.84051 5.89709ZM3.1988 6.6241C3.26064 6.28117 3.50792 6.00103 3.84051 5.89709L3.54224 4.94261C2.85417 5.15763 2.3426 5.7372 2.21467 6.44663L3.1988 6.6241ZM10.9528 13.0346C10.8426 13.345 10.5774 13.5746 10.2545 13.6392L10.4506 14.6198C11.1187 14.4862 11.6673 14.0111 11.8952 13.369L10.9528 13.0346ZM1.52274 16.1844L5.58335 12.1238L4.87624 11.4167L0.815638 15.4773L1.52274 16.1844ZM13.0278 8.03282L8.96718 3.97222L8.26007 4.67933L12.3207 8.73993L13.0278 8.03282ZM8.96718 3.3258L10.6591 1.63388L9.95199 0.926773L8.26007 2.61869L8.96718 3.3258ZM11.3055 1.63388L15.3661 5.69448L16.0732 4.98737L12.0126 0.926772L11.3055 1.63388ZM15.3661 6.3409L13.6742 8.03282L14.3813 8.73993L16.0732 7.04801L15.3661 6.3409ZM15.3661 5.69448C15.5446 5.87298 15.5446 6.1624 15.3661 6.3409L16.0732 7.04801C16.6423 6.47898 16.6423 5.5564 16.0732 4.98737L15.3661 5.69448ZM10.6591 1.63388C10.8376 1.45537 11.127 1.45537 11.3055 1.63388L12.0126 0.926772C11.4436 0.357742 10.521 0.357743 9.95199 0.926773L10.6591 1.63388ZM8.96718 3.97222C8.78867 3.79372 8.78867 3.5043 8.96718 3.3258L8.26007 2.61869C7.69104 3.18772 7.69104 4.1103 8.26007 4.67933L8.96718 3.97222ZM12.3207 8.73993C12.8897 9.30896 13.8123 9.30896 14.3813 8.73993L13.6742 8.03282C13.4957 8.21133 13.2063 8.21133 13.0278 8.03282L12.3207 8.73993ZM5.92173 9.07831C6.474 8.52604 7.36941 8.52604 7.92169 9.07831L8.62879 8.3712C7.686 7.42841 6.15742 7.42841 5.21462 8.3712L5.92173 9.07831ZM7.92169 9.07831C8.47396 9.63059 8.47396 10.526 7.92169 11.0783L8.62879 11.7854C9.57159 10.8426 9.57159 9.314 8.62879 8.3712L7.92169 9.07831ZM7.92169 11.0783C7.36941 11.6305 6.474 11.6305 5.92173 11.0783L5.21462 11.7854C6.15742 12.7282 7.686 12.7282 8.62879 11.7854L7.92169 11.0783ZM5.92173 11.0783C5.36945 10.526 5.36945 9.63059 5.92173 9.07831L5.21462 8.3712C4.27182 9.314 4.27182 10.8426 5.21462 11.7854L5.92173 11.0783Z" fill="#807871"/>
</svg>
