<svg width="13" height="13" viewBox="0 0 13 13" fill="none" xmlns="http://www.w3.org/2000/svg">
<path d="M10.2805 6.83203C10.3728 6.57178 10.2367 6.28595 9.97645 6.19361C9.71621 6.10126 9.43038 6.23737 9.33803 6.49762L10.2805 6.83203ZM8.64425 9.948L9.11546 10.1152L9.11546 10.1152L8.64425 9.948ZM7.85853 10.6283L7.95659 11.1186L7.95659 11.1186L7.85853 10.6283ZM1 12L0.507936 11.9113C0.478567 12.0741 0.53169 12.241 0.649819 12.3569C0.767948 12.4728 0.935776 12.5227 1.09806 12.4903L1 12ZM2.25161 5.05927L2.74367 5.148L2.74367 5.148L2.25161 5.05927ZM2.97367 4.24122L3.12281 4.71846L3.12281 4.71846L2.97367 4.24122ZM6.48431 3.66799C6.74789 3.58563 6.89478 3.30519 6.81242 3.04162C6.73005 2.77804 6.44961 2.63115 6.18604 2.71351L6.48431 3.66799ZM0.77052 11.5224C0.575258 11.7176 0.575258 12.0342 0.77052 12.2295C0.965782 12.4247 1.28236 12.4247 1.47763 12.2295L0.77052 11.5224ZM4.4554 9.25171C4.65066 9.05644 4.65066 8.73986 4.4554 8.5446C4.26014 8.34934 3.94356 8.34934 3.74829 8.5446L4.4554 9.25171ZM11.7944 4.18335L12.148 3.82979L12.148 3.82979L11.7944 4.18335ZM11.7944 5.17594L11.4409 4.82238L11.4409 4.82238L11.7944 5.17594ZM7.82406 1.20557L7.47051 0.852019L7.47051 0.852019L7.82406 1.20557ZM8.81665 1.20557L8.4631 1.55913L8.4631 1.55913L8.81665 1.20557ZM6.58332 3.4389L6.93688 3.08535L6.58332 3.4389ZM6.58332 2.44631L6.93688 2.79986L6.93688 2.79986L6.58332 2.44631ZM9.5611 6.41667L9.20754 6.77023L9.5611 6.41667ZM10.5537 6.41667L10.9072 6.77023L10.9072 6.77023L10.5537 6.41667ZM9.33803 6.49762L8.17303 9.7808L9.11546 10.1152L10.2805 6.83203L9.33803 6.49762ZM7.76047 10.138L0.901942 11.5097L1.09806 12.4903L7.95659 11.1186L7.76047 10.138ZM1.49206 12.0887L2.74367 5.148L1.75954 4.97053L0.507936 11.9113L1.49206 12.0887ZM3.12281 4.71846L6.48431 3.66799L6.18604 2.71351L2.82454 3.76398L3.12281 4.71846ZM2.74367 5.148C2.78021 4.94539 2.92631 4.77987 3.12281 4.71846L2.82454 3.76398C2.27256 3.93648 1.86217 4.40141 1.75954 4.97053L2.74367 5.148ZM8.17303 9.7808C8.10796 9.96418 7.95127 10.0998 7.76047 10.138L7.95659 11.1186C8.49254 11.0114 8.93268 10.6303 9.11546 10.1152L8.17303 9.7808ZM1.47763 12.2295L4.4554 9.25171L3.74829 8.5446L0.77052 11.5224L1.47763 12.2295ZM9.91465 6.06312L6.93688 3.08535L6.22977 3.79246L9.20754 6.77023L9.91465 6.06312ZM6.93688 2.79986L8.17762 1.55913L7.47051 0.852019L6.22977 2.09276L6.93688 2.79986ZM8.4631 1.55913L11.4409 4.5369L12.148 3.82979L9.17021 0.852019L8.4631 1.55913ZM11.4409 4.82238L10.2001 6.06312L10.9072 6.77023L12.148 5.52949L11.4409 4.82238ZM11.4409 4.5369C11.5197 4.61573 11.5197 4.74355 11.4409 4.82238L12.148 5.52949C12.6173 5.06013 12.6173 4.29915 12.148 3.82979L11.4409 4.5369ZM8.17762 1.55913C8.25645 1.48029 8.38427 1.48029 8.4631 1.55913L9.17021 0.852019C8.70085 0.38266 7.93987 0.382661 7.47051 0.852019L8.17762 1.55913ZM6.93688 3.08535C6.85804 3.00651 6.85804 2.8787 6.93688 2.79986L6.22977 2.09276C5.76041 2.56212 5.76041 3.3231 6.22977 3.79246L6.93688 3.08535ZM9.20754 6.77023C9.6769 7.23959 10.4379 7.23959 10.9072 6.77023L10.2001 6.06312C10.1213 6.14196 9.99349 6.14196 9.91465 6.06312L9.20754 6.77023ZM4.70355 7.01838C5.05648 6.66545 5.62869 6.66545 5.98162 7.01838L6.68873 6.31127C5.94527 5.56781 4.7399 5.56781 3.99644 6.31127L4.70355 7.01838ZM5.98162 7.01838C6.33455 7.37131 6.33455 7.94352 5.98162 8.29645L6.68873 9.00356C7.43218 8.2601 7.43218 7.05472 6.68873 6.31127L5.98162 7.01838ZM5.98162 8.29645C5.62869 8.64938 5.05648 8.64938 4.70355 8.29645L3.99644 9.00356C4.7399 9.74701 5.94527 9.74701 6.68873 9.00356L5.98162 8.29645ZM4.70355 8.29645C4.35062 7.94352 4.35062 7.37131 4.70355 7.01838L3.99644 6.31127C3.25299 7.05472 3.25299 8.2601 3.99644 9.00356L4.70355 8.29645Z" fill="#C9C9C9"/>
</svg>
