<svg version="1.1" xmlns="http://www.w3.org/2000/svg"  viewBox="0 0 512 512" width="512" height="512"><path d="M0 0 C0.66376648 -0.00817749 1.32753296 -0.01635498 2.01141357 -0.02478027 C4.21544502 -0.04965103 6.41941142 -0.066165 8.62353516 -0.08056641 C9.75673628 -0.08855192 9.75673628 -0.08855192 10.91283035 -0.09669876 C14.92071772 -0.1234527 18.92857388 -0.14281009 22.93652344 -0.15722656 C26.23628872 -0.17050074 29.53542599 -0.19822699 32.83496094 -0.23925781 C36.83146596 -0.28895066 40.82740661 -0.31339353 44.82420731 -0.32045364 C46.33828513 -0.32711277 47.85235306 -0.34219323 49.3662529 -0.36634445 C61.7173418 -0.55194816 72.62708141 1.32571084 81.81567383 10.22314453 C89.07705234 18.52951087 91.64141508 28.33973978 94.35009766 38.75537109 C94.7722796 40.33226639 95.19596931 41.90875872 95.62109375 43.48486328 C96.4971457 46.74055182 97.36503901 49.99825016 98.2265625 53.2578125 C99.52012186 58.14280762 100.84625151 63.0185181 102.18212891 67.89208984 C102.39277481 68.66069839 102.60342072 69.42930695 102.82044983 70.22120667 C103.23344803 71.72780307 103.64651715 73.23438004 104.05966187 74.74093628 C105.56066561 80.22263507 107.0476666 85.70815521 108.53759766 91.19287109 C124.79248082 91.94531855 141.01114478 92.34962626 157.2824707 92.38232422 C159.53755333 92.3903014 161.79263453 92.39869183 164.04771423 92.40745544 C168.86364493 92.425332 173.67957284 92.44041423 178.49551964 92.45323181 C186.2230915 92.47389069 193.95063017 92.50149865 201.67817688 92.52990723 C212.62146177 92.56961952 223.56475329 92.60638543 234.50805664 92.640625 C235.54442957 92.6438692 235.54442957 92.6438692 236.60173932 92.64717895 C239.3933245 92.65591041 242.18490971 92.66462897 244.97649498 92.67333183 C257.90506999 92.71366196 270.83364063 92.75533789 283.76220703 92.79833984 C284.42851046 92.80055558 285.09481388 92.80277131 285.78130832 92.80505419 C312.65140699 92.89467683 339.52136859 93.00878245 366.39129412 93.14051628 C374.94999382 93.18198132 383.50870347 93.21624449 392.06744385 93.24804688 C402.20757071 93.28629898 412.34749297 93.33953624 422.48743397 93.41216516 C427.60653024 93.44860754 432.72545792 93.47898499 437.84467125 93.49229431 C442.51909201 93.50468796 447.19301985 93.53544154 451.86723304 93.58086967 C453.54974949 93.59408694 455.23233377 93.60072287 456.91490197 93.59997749 C468.81474062 93.60004419 478.71669998 94.63211578 487.77978516 103.12646484 C493.44355145 109.78453677 495.89220005 117.49292703 495.78778076 126.09997559 C495.25289127 132.71256164 493.53765378 139.14216245 492.01416016 145.58349609 C491.63623724 147.21782532 491.25930534 148.85238397 490.88328552 150.4871521 C489.86705922 154.8929072 488.83751944 159.29544944 487.80519485 163.69745636 C486.72633792 168.30673529 485.65864909 172.91859885 484.59008789 177.53027344 C483.26149719 183.26104565 481.9315599 188.99149325 480.59611511 194.72067261 C477.70492051 207.12764301 474.85313431 219.54299391 472.03329468 231.96636963 C470.81258918 237.34076608 469.58664064 242.71396925 468.36086655 248.08721161 C467.38625932 252.36114363 466.41453393 256.63568828 465.44927979 260.91174316 C464.5436489 264.92243596 463.62916354 268.93101091 462.70811653 272.93819046 C462.37399093 274.39894681 462.0430293 275.86043135 461.71560478 277.32270432 C458.58770497 291.27859207 454.60291221 303.50584462 442.53759766 312.19287109 C433.21499764 317.87352121 423.86474967 318.48854561 413.1512146 318.44442749 C411.92748158 318.44739763 410.70374856 318.45036777 409.44293272 318.45342791 C406.06763302 318.45971954 402.69255196 318.45718289 399.31726646 318.45090914 C395.66898657 318.44635736 392.02072732 318.45342477 388.37245178 318.45921326 C382.05709451 318.46782887 375.74176524 318.46965863 369.42640305 318.46726608 C360.28792259 318.46416353 351.14950387 318.475824 342.01103897 318.49181588 C327.17289218 318.51775315 312.33474534 318.53778576 297.49658203 318.55126953 C296.6093139 318.5520799 295.72204577 318.55289027 294.80789073 318.5537252 C282.20806043 318.56495399 269.60823455 318.57022988 257.00839992 318.57311232 C256.12052541 318.57331631 255.23265089 318.5735203 254.31787109 318.57373047 C253.43108175 318.5739304 252.54429241 318.57413034 251.63063066 318.57433634 C236.84406607 318.57806894 222.05756865 318.59714925 207.2710377 318.62882483 C198.15507069 318.64773653 189.0392759 318.65370277 179.92329468 318.64300765 C173.67938653 318.6366899 167.43560198 318.64472519 161.19172095 318.66406177 C157.58976655 318.67474553 153.9881123 318.67889232 150.3861599 318.66559029 C146.48061468 318.6513117 142.5755439 318.66786118 138.67001343 318.68734741 C137.53314885 318.67822276 136.39628428 318.6690981 135.22496927 318.65969694 C128.77407054 318.72245464 124.77611773 319.32839514 119.53759766 323.19287109 C116.33734016 327.03318009 115.54697037 331.27219835 115.53759766 336.19287109 C116.48061313 341.7566624 118.21217121 344.58834905 122.53759766 348.19287109 C125.72494724 350.14215702 128.11915904 350.44297278 131.83320999 350.44341087 C132.91260983 350.44840957 133.99200966 350.45340827 135.10411859 350.45855844 C136.28931329 350.45389523 137.47450799 350.44923201 138.69561768 350.44442749 C139.95520853 350.44739763 141.21479938 350.45036777 142.51255965 350.45342791 C146.01119932 350.46147753 149.50973226 350.45715659 153.00837159 350.45090914 C156.78082227 350.44638047 160.55325243 350.45341294 164.32569885 350.45921326 C170.86431864 350.4678519 177.40291138 350.469653 183.94153595 350.46726608 C193.40403806 350.46417053 202.86648026 350.47580019 212.3289673 350.49181588 C227.69228795 350.51778875 243.05560864 350.53780145 258.41894531 350.55126953 C259.33868479 350.5520799 260.25842426 350.55289027 261.20603463 350.5537252 C274.25447357 350.56494348 287.30290824 350.57022698 300.35135135 350.57311232 C301.26987806 350.57331631 302.18840477 350.5735203 303.13476562 350.57373047 C304.5108769 350.57403037 304.5108769 350.57403037 305.9147884 350.57433634 C321.21535401 350.57806983 336.51585476 350.59715977 351.81638789 350.62882483 C361.25369984 350.64773861 370.69084543 350.65370142 380.12817112 350.64300765 C386.59686418 350.63668663 393.065438 350.64473445 399.53410491 350.66406177 C403.26576198 350.67474044 406.99712947 350.67890116 410.72878456 350.66559029 C414.77664644 350.65129662 418.82380302 350.66787259 422.87164307 350.68734741 C424.04791488 350.67822276 425.22418669 350.6690981 426.43610311 350.65969694 C432.88836763 350.72016932 438.25366297 351.20649283 443.53759766 355.19287109 C447.1846142 359.38438424 448.19630596 363.53742351 447.92431641 369.05224609 C446.88618851 374.798651 442.90127154 377.79890252 438.53759766 381.19287109 C438.81474609 382.00369141 439.09189453 382.81451172 439.37744141 383.64990234 C444.41763941 399.05748272 444.70331192 412.431514 437.95947266 427.46630859 C434.77834682 433.56637957 430.57312205 438.5257997 425.53759766 443.19287109 C425.04904297 443.67498047 424.56048828 444.15708984 424.05712891 444.65380859 C413.48365033 454.54917809 400.01358783 456.81564251 386.08837891 456.50537109 C373.85000928 455.89281453 361.01511447 450.17948161 352.53759766 441.19287109 C342.31019291 429.03384914 336.80192581 415.48366455 337.76416016 399.40771484 C338.6099009 392.70629451 340.11300099 387.6584622 342.53759766 381.19287109 C311.51759766 381.19287109 280.49759766 381.19287109 248.53759766 381.19287109 C250.51759766 386.63787109 250.51759766 386.63787109 252.53759766 392.19287109 C255.9428569 405.53013648 252.73952306 419.34391527 246.37744141 431.24365234 C238.97114958 443.11573372 227.22261734 452.32159137 213.48291016 455.79052734 C197.74203118 457.94080657 183.39345023 456.23084451 170.03759766 447.10693359 C158.56023416 438.31957717 150.77827374 426.63043494 148.53759766 412.19287109 C148.36687142 409.53122115 148.26157194 406.91799355 148.22509766 404.25537109 C148.19609375 403.58441406 148.16708984 402.91345703 148.13720703 402.22216797 C148.04912417 394.87063654 150.3507316 388.1378238 152.53759766 381.19287109 C151.68641357 381.21381836 150.83522949 381.23476563 149.95825195 381.25634766 C146.747031 381.32523272 143.53619122 381.3750116 140.32446289 381.41259766 C138.94445266 381.43249779 137.56452429 381.45962849 136.18481445 381.49462891 C121.4239064 381.85922816 108.92010997 378.2010004 97.85009766 368.06787109 C88.60394995 358.12225122 83.78919126 345.52165653 84.25634766 331.97412109 C85.68741633 317.82244203 91.56732183 306.28455364 102.53759766 297.19287109 C110.98994302 291.03223021 119.10268998 288.1059834 129.53759766 288.19287109 C129.34033081 287.46342789 129.14306396 286.73398468 128.93981934 285.98243713 C119.28868136 250.29380554 109.64415517 214.60339781 100.01980877 178.90753078 C98.5288937 173.37822827 97.03703537 167.8491813 95.54441738 162.32033825 C94.28264766 157.64644181 93.02132877 152.97242381 91.76025391 148.29833984 C91.50901072 147.36713381 91.25776752 146.43592777 90.9989109 145.47650337 C87.47606688 132.41618791 83.97208724 119.35092241 80.48086548 106.28211975 C78.53718252 99.00661368 76.58852117 91.73244368 74.63871956 84.45857525 C73.04461526 78.50977688 71.45727107 72.55922801 69.87488461 66.60730267 C68.89752898 62.93757821 67.91378207 59.26958991 66.92823982 55.6020565 C66.47245949 53.90064382 66.01936554 52.1985089 65.56915092 50.49561501 C64.95335144 48.16779396 64.32808242 45.84271744 63.70043945 43.51806641 C63.52445347 42.8434307 63.34846748 42.16879499 63.16714859 41.47371578 C62.12180851 37.64862085 61.0959738 34.26079831 58.53759766 31.19287109 C55.79835263 30.45022167 55.79835263 30.45022167 52.61669922 30.58105469 C51.39823303 30.57109467 50.17976685 30.56113464 48.92437744 30.5508728 C47.60564636 30.56421661 46.28691528 30.57756042 44.92822266 30.59130859 C43.55921162 30.58580684 42.19020883 30.5776808 40.82122803 30.56704712 C37.21355454 30.5441378 33.60648615 30.54838486 29.9987793 30.56085205 C24.23910729 30.57913521 18.47979499 30.56905014 12.72020721 30.53499222 C10.71566861 30.52892199 8.71110139 30.54275992 6.706604 30.55697632 C-6.60103198 30.51745903 -6.60103198 30.51745903 -12.20458984 25.69287109 C-15.9649273 20.71366563 -16.88503609 17.42671884 -16.46240234 11.19287109 C-13.40753994 2.99297728 -8.35675043 0.08934296 0 0 Z M116.53759766 122.19287109 C118.1988271 130.53704087 118.1988271 130.53704087 120.23339844 138.74414062 C120.55357941 139.92460968 120.87376038 141.10507874 121.2036438 142.32131958 C121.5433017 143.5602597 121.88295959 144.79919983 122.23291016 146.07568359 C122.58906768 147.38410633 122.94492788 148.69261003 123.30050659 150.00119019 C124.22802679 153.41149499 125.15952726 156.82069965 126.09191895 160.22967529 C127.04631492 163.72194798 127.99689899 167.21525792 128.94775391 170.70849609 C130.80696194 177.5377439 132.67242608 184.36523848 134.53759766 191.19287109 C153.67759766 191.19287109 172.81759766 191.19287109 192.53759766 191.19287109 C191.92578121 181.40380793 191.26457108 171.92045541 189.90869141 162.25537109 C189.77209106 161.24925781 189.63549072 160.24314453 189.49475098 159.20654297 C188.99450392 155.5344547 188.48426175 151.86373357 187.97509766 148.19287109 C186.84072266 139.94287109 185.70634766 131.69287109 184.53759766 123.19287109 C150.87759766 122.69787109 150.87759766 122.69787109 116.53759766 122.19287109 Z M214.53759766 123.19287109 C215.26422306 132.31199728 215.26422306 132.31199728 216.27783203 141.37280273 C216.41467407 142.42331314 216.55151611 143.47382355 216.69250488 144.5561676 C216.90973206 146.18811317 216.90973206 146.18811317 217.13134766 147.85302734 C217.28293335 149.00532333 217.43451904 150.15761932 217.59069824 151.34483337 C217.90866052 153.75587339 218.22805318 156.16672516 218.54882812 158.57739258 C219.04035603 162.27612777 219.52557657 165.97565454 220.01025391 169.67529297 C220.32107653 172.02625408 220.63226133 174.37716733 220.94384766 176.72802734 C221.08866577 177.83420914 221.23348389 178.94039093 221.38269043 180.08009338 C221.51953247 181.10223434 221.65637451 182.12437531 221.79736328 183.17749023 C221.91648071 184.07617325 222.03559814 184.97485626 222.1583252 185.90077209 C222.50119092 188.34550631 222.50119092 188.34550631 223.53759766 191.19287109 C242.34759766 191.19287109 261.15759766 191.19287109 280.53759766 191.19287109 C280.53759766 168.75287109 280.53759766 146.31287109 280.53759766 123.19287109 C258.75759766 123.19287109 236.97759766 123.19287109 214.53759766 123.19287109 Z M310.53759766 123.19287109 C310.53759766 145.63287109 310.53759766 168.07287109 310.53759766 191.19287109 C324.61416016 191.22380859 324.61416016 191.22380859 338.97509766 191.25537109 C341.94179443 191.2644751 344.90849121 191.2735791 347.96508789 191.28295898 C350.30045527 191.2858779 352.63582315 191.28842651 354.97119141 191.29052734 C356.80961609 191.29820129 356.80961609 191.29820129 358.68518066 191.30603027 C360.42088318 191.30621155 360.42088318 191.30621155 362.19165039 191.30639648 C363.20202866 191.3086171 364.21240692 191.31083771 365.25340271 191.31312561 C367.5034062 191.45004715 367.5034062 191.45004715 368.53759766 190.19287109 C368.86762599 188.3280002 369.13846249 186.45261876 369.38549805 184.57495117 C369.54558853 183.37312698 369.70567902 182.1713028 369.87062073 180.93305969 C370.04236986 179.6095338 370.213909 178.28598063 370.38525391 176.96240234 C370.56292491 175.61053585 370.74086122 174.25870419 370.91905212 172.90690613 C371.29246073 170.06662676 371.66280661 167.22596902 372.03100586 164.38500977 C372.50182586 160.75395353 372.97986073 157.12389231 373.4601984 153.49408436 C373.82936296 150.69852833 374.19478043 147.90249221 374.55908012 145.10629845 C374.81853079 143.11973788 375.08100108 141.13357244 375.34352112 139.14741516 C375.50045944 137.92983017 375.65739777 136.71224518 375.8190918 135.45776367 C375.95819473 134.3904451 376.09729767 133.32312653 376.24061584 132.22346497 C376.53435144 129.22599754 376.53759766 126.20469638 376.53759766 123.19287109 C354.75759766 123.19287109 332.97759766 123.19287109 310.53759766 123.19287109 Z M406.53759766 124.19287109 C405.49203663 131.88754679 404.4473793 139.58225346 403.41125488 147.27819061 C402.928435 150.86246887 402.44399941 154.44651125 401.95556641 158.0300293 C401.48466255 161.48541606 401.01831999 164.94139126 400.55505371 168.39780998 C400.29226944 170.3495788 400.02483861 172.3007202 399.75732422 174.25184631 C399.5971582 175.45256271 399.43699219 176.65327911 399.27197266 177.89038086 C399.12985352 178.94073013 398.98773438 179.99107941 398.84130859 181.07325745 C398.51430738 184.43210071 398.53759766 187.81814772 398.53759766 191.19287109 C415.36759766 191.19287109 432.19759766 191.19287109 449.53759766 191.19287109 C451.38819871 186.25793494 452.93523805 182.09362221 454.0715332 177.08398438 C454.33157639 175.94986115 454.59161957 174.81573792 454.85954285 173.64724731 C455.12841812 172.44800629 455.3972934 171.24876526 455.67431641 170.01318359 C456.10077202 168.13951614 456.10077202 168.13951614 456.5358429 166.22799683 C457.13336699 163.60149198 457.72722205 160.97419583 458.31811523 158.34619141 C459.07604494 154.97564668 459.84084935 151.60670956 460.60806561 148.2382679 C461.34109439 145.01799755 462.07021561 141.7968452 462.79931641 138.57568359 C463.21173836 136.75860397 463.21173836 136.75860397 463.63249207 134.90481567 C464.00837212 133.23200027 464.00837212 133.23200027 464.3918457 131.52539062 C464.61374069 130.54136261 464.83563568 129.55733459 465.06425476 128.54348755 C465.60340001 126.26573078 465.60340001 126.26573078 465.53759766 124.19287109 C446.06759766 124.19287109 426.59759766 124.19287109 406.53759766 124.19287109 Z M143.53759766 221.19287109 C144.39997171 228.10933572 144.39997171 228.10933572 145.87280273 234.77929688 C146.14010696 235.80040558 146.40741119 236.82151428 146.68281555 237.87356567 C146.97133896 238.95088959 147.25986237 240.0282135 147.55712891 241.13818359 C147.85697189 242.26682831 148.15681488 243.39547302 148.46574402 244.55831909 C149.09924055 246.93416992 149.73563349 249.30925013 150.37475586 251.68359375 C151.3479601 255.30990623 152.30346262 258.94059193 153.25830078 262.57177734 C153.87766431 264.88586854 154.49807181 267.19968062 155.11962891 269.51318359 C155.54330498 271.13524216 155.54330498 271.13524216 155.97554016 272.79006958 C157.46932417 278.26735916 158.83880744 282.82203105 162.53759766 287.19287109 C165.24384135 288.09495233 166.77610751 288.31514709 169.55004883 288.30639648 C170.35065231 288.30632095 171.1512558 288.30624542 171.97612 288.3061676 C172.83558731 288.30100632 173.69505463 288.29584503 174.58056641 288.29052734 C175.90596184 288.28840492 175.90596184 288.28840492 177.25813293 288.28623962 C180.08048893 288.28064178 182.90276563 288.26808971 185.72509766 288.25537109 C187.63850797 288.25035581 189.55191952 288.24579296 191.46533203 288.24169922 C196.1561178 288.23067306 200.84684428 288.21340993 205.53759766 288.19287109 C205.79333388 280.84045456 204.80631526 273.77803918 203.78759766 266.50537109 C203.6100293 265.20712402 203.43246094 263.90887695 203.24951172 262.57128906 C202.7807718 259.14466009 202.30563746 255.71894828 201.82910156 252.293396 C201.34260227 248.78776926 200.86218597 245.28130926 200.38134766 241.77490234 C199.43995642 234.9132964 198.48853266 228.05318788 197.53759766 221.19287109 C179.71759766 221.19287109 161.89759766 221.19287109 143.53759766 221.19287109 Z M227.53759766 221.19287109 C228.26538788 230.3195462 228.26538788 230.3195462 229.27783203 239.38867188 C229.41467407 240.44240997 229.55151611 241.49614807 229.69250488 242.58181763 C229.837323 243.6729184 229.98214111 244.76401917 230.13134766 245.88818359 C230.28293335 247.04285126 230.43451904 248.19751892 230.59069824 249.38717651 C230.90864084 251.80241496 231.22803355 254.21746292 231.54882812 256.63232422 C232.04079653 260.34199204 232.525767 264.0525321 233.01025391 267.76318359 C233.32103305 270.11740558 233.63221621 272.47157428 233.94384766 274.82568359 C234.08866577 275.93702667 234.23348389 277.04836975 234.38269043 278.19338989 C234.51953247 279.21560638 234.65637451 280.23782288 234.79736328 281.29101562 C234.91648071 282.19191925 235.03559814 283.09282288 235.1583252 284.02102661 C235.4373792 286.23133413 235.4373792 286.23133413 236.53759766 288.19287109 C251.05759766 288.19287109 265.57759766 288.19287109 280.53759766 288.19287109 C280.53759766 266.08287109 280.53759766 243.97287109 280.53759766 221.19287109 C263.04759766 221.19287109 245.55759766 221.19287109 227.53759766 221.19287109 Z M310.53759766 221.19287109 C310.53759766 243.30287109 310.53759766 265.41287109 310.53759766 288.19287109 C325.05759766 288.19287109 339.57759766 288.19287109 354.53759766 288.19287109 C355.80571583 283.75445749 356.81725577 280.09605066 357.40722656 275.64404297 C357.54722076 274.60606567 357.68721497 273.56808838 357.83145142 272.49865723 C357.9742453 271.3974353 358.11703918 270.29621338 358.26416016 269.16162109 C358.41670258 268.01173706 358.569245 266.86185303 358.72640991 265.67712402 C359.04657977 263.2535124 359.36412347 260.82955257 359.67919922 258.40527344 C360.16107654 254.70455295 360.65342099 251.0053319 361.14697266 247.30615234 C361.45749606 244.94555773 361.76741232 242.58488315 362.07666016 240.22412109 C362.2235025 239.12289917 362.37034485 238.02167725 362.52163696 236.88708496 C362.65532684 235.84910767 362.78901672 234.81113037 362.92675781 233.74169922 C363.04507965 232.83681763 363.16340149 231.93193604 363.28530884 230.99963379 C363.5780562 227.74276182 363.53759766 224.46287354 363.53759766 221.19287109 C346.04759766 221.19287109 328.55759766 221.19287109 310.53759766 221.19287109 Z M393.53759766 222.19287109 C393.20755674 224.06305145 392.93672631 225.94371612 392.68969727 227.82666016 C392.52960678 229.03171204 392.3695163 230.23676392 392.20457458 231.47833252 C392.0328447 232.80502971 391.86130502 234.13175154 391.68994141 235.45849609 C391.5122889 236.81276059 391.33435239 238.16698785 391.15614319 239.5211792 C390.78277658 242.36566056 390.41240442 245.21051135 390.04418945 248.05566406 C389.57292485 251.69572446 389.09505083 255.33487875 388.61499691 258.97378922 C388.2462568 261.77364904 387.88069527 264.57391671 387.51611519 267.37432098 C387.25622792 269.36696359 386.99396853 271.35929635 386.73167419 273.35162354 C386.57473587 274.56928406 386.41779755 275.78694458 386.25610352 277.04150391 C386.11700058 278.11104309 385.97789764 279.18058228 385.83457947 280.28253174 C385.56277457 282.94614435 385.480823 285.51823124 385.53759766 288.19287109 C390.8761256 288.24234419 396.21451979 288.27862535 401.55322266 288.30273438 C403.36900151 288.31278601 405.18476421 288.32642938 407.00048828 288.34375 C409.61185701 288.36803516 412.22301153 288.37936257 414.83447266 288.38818359 C416.05031036 288.40366745 416.05031036 288.40366745 417.29071045 288.41946411 C422.85999044 288.62653254 422.85999044 288.62653254 427.53759766 286.19287109 C430.49282195 279.82816206 431.89698365 273.03012556 433.45556641 266.21240234 C433.7176741 265.08138596 433.9797818 263.95036957 434.24983215 262.78507996 C434.79953711 260.40641289 435.3465016 258.02711102 435.89086914 255.6472168 C436.72520728 252.00489254 437.57124661 248.36542325 438.41845703 244.72607422 C438.95236307 242.4091788 439.48558978 240.0921267 440.01806641 237.77490234 C440.27114059 236.68836868 440.52421478 235.60183502 440.78495789 234.4823761 C441.13080681 232.96005623 441.13080681 232.96005623 441.48364258 231.40698242 C441.78983772 230.07416985 441.78983772 230.07416985 442.10221863 228.71443176 C442.5440107 226.15572903 442.61610288 223.78394363 442.53759766 221.19287109 C435.71997872 221.16760219 428.90237176 221.15003865 422.0847168 221.13793945 C419.76342314 221.13289776 417.44213268 221.12606458 415.12084961 221.11743164 C411.79230971 221.10535885 408.46381163 221.09964131 405.13525391 221.09521484 C404.09047379 221.09005356 403.04569366 221.08489227 401.96925354 221.07957458 C400.5278727 221.07946129 400.5278727 221.07946129 399.05737305 221.0793457 C398.20687881 221.07712509 397.35638458 221.07490448 396.4801178 221.07261658 C394.5317122 220.97806825 394.5317122 220.97806825 393.53759766 222.19287109 Z M184.04541016 388.47412109 C179.30392512 393.87892269 177.78812738 399.21930427 178.09619141 406.38427734 C179.17839877 413.27018084 182.15898391 418.49057815 187.66259766 422.75537109 C193.61502237 426.84332036 199.50427732 426.81029998 206.53759766 426.19287109 C213.23701297 424.42215021 217.64438271 419.73611897 221.53759766 414.19287109 C224.36210429 408.29824854 224.40718999 402.19239601 222.35009766 396.06787109 C219.70588307 389.82458665 215.87262139 385.70445299 209.70556641 382.95068359 C200.18386621 379.62237758 191.38916452 381.50609369 184.04541016 388.47412109 Z M371.53759766 391.19287109 C367.3211801 396.72691914 367.82086495 403.53865946 368.53759766 410.19287109 C370.22493376 416.38981381 374.22003309 420.72152957 379.53759766 424.19287109 C385.56395279 427.10627457 392.44649799 427.32966584 398.88525391 425.54052734 C404.81360393 422.87905229 408.85762855 418.39281226 411.85009766 412.69287109 C414.00596142 404.85336648 413.69002933 399.17885568 409.85009766 392.06787109 C405.22241355 386.31453409 401.00527102 382.55062989 393.53759766 381.19287109 C384.35882642 380.21640607 377.62744116 384.73903694 371.53759766 391.19287109 Z " transform="translate(16.46240234375,27.80712890625)" style="fill: rgba(255, 255, 255, 1);"></path></svg>