<svg width="16" height="18" viewBox="0 0 16 18" fill="none" xmlns="http://www.w3.org/2000/svg">
<path d="M3.33333 1.53333L1 4.51999V14.9733C1 15.3694 1.16389 15.7492 1.45561 16.0293C1.74733 16.3093 2.143 16.4667 2.55556 16.4667H13.4444C13.857 16.4667 14.2527 16.3093 14.5444 16.0293C14.8361 15.7492 15 15.3694 15 14.9733V4.51999L12.6667 1.53333H3.33333Z" stroke="#143146" stroke-width="1.5" stroke-linecap="round" stroke-linejoin="round"/>
<path d="M1 4.33337H15" stroke="#143146" stroke-width="1.5" stroke-linecap="round" stroke-linejoin="round"/>
<path d="M11.2667 7.1333C11.2667 8.12344 10.9226 9.07303 10.3099 9.77317C9.69733 10.4733 8.86644 10.8666 8.00007 10.8666C7.13369 10.8666 6.3028 10.4733 5.69018 9.77317C5.07756 9.07303 4.7334 8.12344 4.7334 7.1333" stroke="#143146" stroke-width="1.5" stroke-linecap="round" stroke-linejoin="round"/>
</svg>
