<svg width="20" height="21" viewBox="0 0 20 21" fill="none" xmlns="http://www.w3.org/2000/svg">
<path d="M7 1.5H3C1.89543 1.5 1 2.39543 1 3.5V7.5M7 19.5H3C1.89543 19.5 1 18.6046 1 17.5V13.5M13 1.5H17C18.1046 1.5 19 2.39543 19 3.5V7.5M19 13.5V17.5C19 18.6046 18.1046 19.5 17 19.5H13M7.75 13.875H12.25C12.8713 13.875 13.375 13.3713 13.375 12.75V8.25C13.375 7.62868 12.8713 7.125 12.25 7.125H7.75C7.12868 7.125 6.625 7.62868 6.625 8.25V12.75C6.625 13.3713 7.12868 13.875 7.75 13.875Z" stroke="#D0B088" stroke-width="2" stroke-linecap="round"/>
</svg>
