<svg width="22" height="20" viewBox="0 0 22 20" fill="none" xmlns="http://www.w3.org/2000/svg">
<path d="M6 3.9589V4.7089C6.26514 4.7089 6.51057 4.56891 6.64555 4.3407L6 3.9589ZM7.75 1V0.25C7.48486 0.25 7.23943 0.38999 7.10445 0.618201L7.75 1ZM14.25 1L14.8955 0.618201C14.7606 0.38999 14.5151 0.25 14.25 0.25V1ZM16 3.9589L15.3545 4.3407C15.4894 4.56891 15.7349 4.7089 16 4.7089V3.9589ZM1.75 16.5342V6.42466H0.25V16.5342H1.75ZM3.5 4.7089H6V3.2089H3.5V4.7089ZM6.64555 4.3407L8.39555 1.3818L7.10445 0.618201L5.35445 3.57711L6.64555 4.3407ZM7.75 1.75H14.25V0.25H7.75V1.75ZM13.6045 1.3818L15.3545 4.3407L16.6455 3.57711L14.8955 0.618201L13.6045 1.3818ZM16 4.7089H18.5V3.2089H16V4.7089ZM20.25 6.42466V16.5342H21.75V6.42466H20.25ZM20.25 16.5342C20.25 17.4721 19.4763 18.25 18.5 18.25V19.75C20.2851 19.75 21.75 18.32 21.75 16.5342H20.25ZM18.5 4.7089C19.4763 4.7089 20.25 5.48679 20.25 6.42466H21.75C21.75 4.63893 20.2851 3.2089 18.5 3.2089V4.7089ZM1.75 6.42466C1.75 5.48679 2.52371 4.7089 3.5 4.7089V3.2089C1.71486 3.2089 0.25 4.63892 0.25 6.42466H1.75ZM3.5 18.25C2.52371 18.25 1.75 17.4721 1.75 16.5342H0.25C0.25 18.32 1.71486 19.75 3.5 19.75V18.25ZM14 10.863C14 12.4818 12.6666 13.8116 11 13.8116V15.3116C13.4755 15.3116 15.5 13.3296 15.5 10.863H14ZM11 13.8116C9.33336 13.8116 8 12.4818 8 10.863H6.5C6.5 13.3296 8.52451 15.3116 11 15.3116V13.8116ZM8 10.863C8 9.24425 9.33336 7.91438 11 7.91438V6.41438C8.5245 6.41438 6.5 8.39638 6.5 10.863H8ZM11 7.91438C12.6666 7.91438 14 9.24425 14 10.863H15.5C15.5 8.39638 13.4755 6.41438 11 6.41438V7.91438ZM18.5 18.25H3.5V19.75H18.5V18.25Z" fill="#F9F9F9"/>
</svg>
