<svg width="24" height="24" viewBox="0 0 24 24" fill="none" xmlns="http://www.w3.org/2000/svg">
<path d="M15.653 19.415C14.491 20.556 13.264 21.746 12 23C5.57 16.619 0 11.853 0 7.192C0 3.187 3.098 1 6.281 1C8.478 1 10.715 2.042 12 4.248C13.279 2.053 15.521 1.01 17.726 1.01C20.903 1.01 24 3.181 24 7.192C24 8.461 23.576 9.738 22.846 11.053L21.363 9.569C21.766 8.733 22 7.938 22 7.192C22 4.319 19.784 3.01 17.726 3.01C14.469 3.01 12.75 6.485 12 8.031C11.253 6.491 9.516 3.001 6.28 3C3.965 2.999 2 4.516 2 7.192C2 10.634 6.742 15.042 12 20.192L14.239 18.001L15.653 19.415ZM23 14H20V11H18V14H15V16H18V19H20V16H23V14Z" fill="white"/>
</svg>
