<svg width="16" height="15" viewBox="0 0 16 15" fill="none" xmlns="http://www.w3.org/2000/svg">
<path d="M13.9205 2.34259C13.5784 1.99141 13.1722 1.71283 12.7252 1.52276C12.2782 1.33269 11.799 1.23486 11.3151 1.23486C10.8312 1.23486 10.3521 1.33269 9.90504 1.52276C9.45801 1.71283 9.05185 1.99141 8.70976 2.34259L7.99982 3.07108L7.28988 2.34259C6.5989 1.63356 5.66172 1.23523 4.68453 1.23523C3.70733 1.23523 2.77016 1.63356 2.07917 2.34259C1.38819 3.05163 1 4.01328 1 5.01601C1 6.01873 1.38819 6.98039 2.07917 7.68942L2.78911 8.41791L7.99982 13.7647L13.2105 8.41791L13.9205 7.68942C14.2627 7.3384 14.5342 6.92163 14.7194 6.46292C14.9047 6.00421 15 5.51254 15 5.01601C15 4.51948 14.9047 4.02781 14.7194 3.5691C14.5342 3.11038 14.2627 2.69361 13.9205 2.34259Z" stroke="#D0B088" stroke-linecap="round" stroke-linejoin="round"/>
</svg>
