<svg width="16" height="17" viewBox="0 0 16 17" fill="none" xmlns="http://www.w3.org/2000/svg">
<path d="M10.6246 9.09021L10.2154 8.46166L10.205 8.46847L10.1947 8.47561L10.6246 9.09021ZM10.6246 8.08675L10.1799 8.69068L10.2133 8.71532L10.2493 8.73611L10.6246 8.08675ZM6.60293 5.12539L7.04764 4.52146L7.02648 4.50588L7.00428 4.49181L6.60293 5.12539ZM5.75982 5.56771L6.50993 5.56553L6.50966 5.5524L5.75982 5.56771ZM5.77668 11.3848L5.02669 11.387L5.02675 11.4082L5.02801 11.4294L5.77668 11.3848ZM6.65071 11.8695L7.01387 12.5258L7.04831 12.5067L7.08056 12.4841L6.65071 11.8695ZM3.625 2.25H12.375V0.75H3.625V2.25ZM14.25 4.125V12.875H15.75V4.125H14.25ZM12.375 14.75H3.625V16.25H12.375V14.75ZM1.75 12.875V4.125H0.25V12.875H1.75ZM3.625 14.75C2.58947 14.75 1.75 13.9105 1.75 12.875H0.25C0.25 14.739 1.76104 16.25 3.625 16.25V14.75ZM14.25 12.875C14.25 13.9105 13.4105 14.75 12.375 14.75V16.25C14.239 16.25 15.75 14.739 15.75 12.875H14.25ZM12.375 2.25C13.4105 2.25 14.25 3.08947 14.25 4.125H15.75C15.75 2.26104 14.239 0.75 12.375 0.75V2.25ZM3.625 0.75C1.76104 0.75 0.25 2.26104 0.25 4.125H1.75C1.75 3.08947 2.58947 2.25 3.625 2.25V0.75ZM11.0338 9.71876C11.3522 9.51146 11.7604 9.13823 11.7596 8.57296C11.7588 7.99087 11.3296 7.62793 10.9999 7.43738L10.2493 8.73611C10.3241 8.77935 10.3359 8.8007 10.3231 8.78443C10.3051 8.76145 10.2598 8.68795 10.2596 8.575C10.2595 8.4648 10.3024 8.39889 10.3108 8.38754C10.3159 8.38077 10.2955 8.4095 10.2154 8.46166L11.0338 9.71876ZM11.0693 7.48281L7.04764 4.52146L6.15823 5.72932L10.1799 8.69068L11.0693 7.48281ZM7.00428 4.49181C6.65728 4.272 6.16772 4.14467 5.70353 4.36141C5.19792 4.59749 5.00023 5.10561 5.00998 5.58301L6.50966 5.5524C6.50885 5.51242 6.51727 5.52985 6.49289 5.57649C6.46558 5.62873 6.41291 5.68564 6.33814 5.72056C6.1941 5.78781 6.13172 5.71471 6.20159 5.75897L7.00428 4.49181ZM5.00982 5.56988L5.02669 11.387L6.52668 11.3826L6.50982 5.56553L5.00982 5.56988ZM5.02801 11.4294C5.05136 11.8215 5.18799 12.3503 5.68648 12.6166C6.17722 12.8787 6.68667 12.7068 7.01387 12.5258L6.28755 11.2133C6.21678 11.2525 6.19083 11.2536 6.2055 11.2516C6.22617 11.2487 6.302 11.2448 6.39313 11.2935C6.48551 11.3428 6.5263 11.4102 6.53704 11.4331C6.54455 11.4491 6.53052 11.4269 6.52536 11.3402L5.02801 11.4294ZM7.08056 12.4841L11.0544 9.70481L10.1947 8.47561L6.22086 11.2549L7.08056 12.4841Z" fill="#F9F9F9"/>
</svg>
