<svg id="圖層_1" data-name="圖層 1" xmlns="http://www.w3.org/2000/svg" viewBox="0 0 654.42 229.74"><defs><style>.cls-1,.cls-2{fill:#fff;}.cls-1{stroke:#fff;stroke-miterlimit:10;}</style></defs><path class="cls-1" d="M247.06,44h-58.8l-9.34-15.19a11.36,11.36,0,0,0-9.61-5.37H108.17a11.35,11.35,0,0,0-9.6,5.37L89.23,44H30.42A11.29,11.29,0,0,0,19.15,55.27V196.53A11.28,11.28,0,0,0,30.42,207.8H247.06a11.28,11.28,0,0,0,11.28-11.27V55.27A11.29,11.29,0,0,0,247.06,44Zm9.28,152.53a9.28,9.28,0,0,1-9.28,9.27H30.42a9.28,9.28,0,0,1-9.27-9.27V55.27A9.28,9.28,0,0,1,30.42,46H90.35l9.92-16.14a9.36,9.36,0,0,1,7.9-4.42h61.14a9.34,9.34,0,0,1,7.9,4.42L187.14,46h59.92a9.28,9.28,0,0,1,9.28,9.27Z"/><path class="cls-1" d="M244.52,53.12H183.86a1.61,1.61,0,0,1-1.39-.78L171.65,34.75A3.56,3.56,0,0,0,168.6,33H108.89a3.6,3.6,0,0,0-3,1.71L95,52.34a1.64,1.64,0,0,1-1.39.78H33a3.59,3.59,0,0,0-3.59,3.59V194.64A3.59,3.59,0,0,0,33,198.23H244.52a3.58,3.58,0,0,0,3.58-3.59V56.71A3.58,3.58,0,0,0,244.52,53.12Zm1.63,3.59V194.64a1.69,1.69,0,0,1-.1.56l-26.17-17.27V73.86l26.26-17.27S246.15,56.67,246.15,56.71ZM31.33,194.64V56.71a1.59,1.59,0,0,1,.2-.76L58.84,74V177.43l-27.31,18A1.62,1.62,0,0,1,31.33,194.64ZM180.65,152a48.41,48.41,0,0,0-1.52-51.37l38.8-25.51V176.64Zm4.69-24.47A46.6,46.6,0,1,1,138.74,81,46.65,46.65,0,0,1,185.34,127.56Zm-95.15,0A48.25,48.25,0,0,0,97,152.33L60.79,176.15V75.26l37.85,25A48.23,48.23,0,0,0,90.19,127.56ZM98.05,154a48.5,48.5,0,0,0,81.58-.29l64.49,42.57H33.75ZM96.68,53.36,107.5,35.77a1.63,1.63,0,0,1,1.39-.77H168.6a1.63,1.63,0,0,1,1.39.77L180.8,53.36a3.57,3.57,0,0,0,3.06,1.71h60.66a1.24,1.24,0,0,1,.33,0L178,99.06a48.48,48.48,0,0,0-78.24-.41l-66-43.58H93.63A3.57,3.57,0,0,0,96.68,53.36Z"/><path class="cls-1" d="M138.74,84.52a43,43,0,1,0,43,43A43.09,43.09,0,0,0,138.74,84.52Zm0,84.13a41.09,41.09,0,1,1,41.09-41.09A41.13,41.13,0,0,1,138.74,168.65Z"/><path class="cls-1" d="M138.74,95.25a32.32,32.32,0,1,0,32.32,32.31A32.35,32.35,0,0,0,138.74,95.25Zm0,62.68a30.37,30.37,0,1,1,30.37-30.37A30.4,30.4,0,0,1,138.74,157.93Z"/><path class="cls-1" d="M138.64,100.88A27.07,27.07,0,1,0,165.71,128,27.1,27.1,0,0,0,138.64,100.88Zm0,52.19A25.12,25.12,0,1,1,163.76,128,25.15,25.15,0,0,1,138.64,153.07Z"/><path class="cls-2" d="M410.4,112.27a32.73,32.73,0,0,1-5.18-8.9,29,29,0,0,1-1.09-3.47h22.69V94.19h-6.45V67.54H403.32V55.79H397V67.54H380.23V94.19h-6.12V60.09H352.43V128.2h5.46v-5.63h16.22V99.9h22a28.68,28.68,0,0,1-1,3.06,32.16,32.16,0,0,1-5.3,8.81,38.65,38.65,0,0,1-8.19,7.28,45.42,45.42,0,0,1-10.55,5.18l2.48,5.62a45.16,45.16,0,0,0,12-6.16,49.36,49.36,0,0,0,9.43-8.9,40.75,40.75,0,0,0,5.15-8.12,41,41,0,0,0,5.28,8.58,48.63,48.63,0,0,0,9,8.69A44,44,0,0,0,425,129.85l2.32-5.62a39.81,39.81,0,0,1-9.31-4.89A37.42,37.42,0,0,1,410.4,112.27ZM368.73,65.8V87.65H357.89V65.8Zm-10.84,51.06V93.36h10.84v23.5Zm56.44-43.61V94.19h-11c0-.33,0-.66,0-1V73.25ZM385.94,94.19V73.25h11V93.19c0,.34,0,.67,0,1Z"/><path class="cls-2" d="M479.12,129.85h6.54v-4.38h26.56v4.38h6.54V59.18H479.12Zm6.54-65.12h26.56V79.46H485.66Zm0,20.27h26.56V99.73H485.66Zm0,20.19h26.56v14.73H485.66Z"/><path class="cls-2" d="M471.88,88.39c-1.08-2.31-2.14-4.59-3.19-6.82-.63-1.35-1.26-2.65-1.9-3.93h8.61V71.93h-9.68V56.53h-6.29v15.4H446.52v5.71H458a150.21,150.21,0,0,1-6.65,17.42A114.69,114.69,0,0,1,443.21,110l2.56,6.71a134.24,134.24,0,0,0,6.75-12.58,137.44,137.44,0,0,0,5.25-13q.86-2.48,1.66-5v44.29h6.29V86c.68,1.54,1.38,3.07,2.06,4.62q3,6.78,6,14.15l4.06-3.23q-1.32-3.06-2.85-6.37C474,93,473,90.71,471.88,88.39Z"/><path class="cls-2" d="M616.33,73V67.29h-23V55.71H587V67.29H564.36V73h15.45q-.13,10.94-1,18.83A90.51,90.51,0,0,1,576.23,106a35,35,0,0,1-3.93,9.35,22.36,22.36,0,0,1-5.25,5.88,32.62,32.62,0,0,1-6.42,3.8l3.48,5.22a41.64,41.64,0,0,0,7.24-4.51,27.37,27.37,0,0,0,6-6.66,40.76,40.76,0,0,0,4.55-10.31,89.64,89.64,0,0,0,3-15.39c.08-.71.16-1.45.24-2.19h21.36q0,8.78-.17,14.56t-.62,9.27a19.15,19.15,0,0,1-1.2,5.13,3.81,3.81,0,0,1-2,2.15,15.6,15.6,0,0,1-4.93.62c-2.23,0-5,0-8.23-.2l.08,6q5.88.33,10.18.17a23.6,23.6,0,0,0,6.45-.91,7.69,7.69,0,0,0,3.93-3.64,22.84,22.84,0,0,0,2.16-7.53,114.77,114.77,0,0,0,.91-12.5q.2-7.61.2-18.53H585.59c.28-3.88.47-8.14.58-12.75Z"/><path class="cls-2" d="M565.18,108.42a82,82,0,0,1-9.43,4.8V80.78h10.51V75.07H555.75V57.78h-6.37V75.07h-8.86v5.71h8.86v34.94c-3,1.13-6.09,2.23-9.27,3.29l1,5.8q6.87-2.24,13.29-4.89A79.76,79.76,0,0,0,566,114.05Z"/><path class="cls-1" d="M333,156.67v27.59h11.2l-.35,2.26H330.48V156.67Z"/><path class="cls-1" d="M376.89,156.67l-.31,2.14H365.64V170h9.5v2.09h-9.5v12.29h11.51v2.13h-14V156.67Z"/><path class="cls-1" d="M415,186.52h-3.31l-12.46-27c.23,2.68.35,6.06.35,10.16v16.86h-2.4V156.67h3.31l12.46,27.06c-.23-3.48-.34-6.42-.34-8.8V156.67H415Z"/><path class="cls-1" d="M448,157a12.5,12.5,0,0,1,3.51,2.48L450.05,161a11.12,11.12,0,0,0-3-2,8.25,8.25,0,0,0-3.29-.63,5.66,5.66,0,0,0-4,1.4,4.71,4.71,0,0,0-1.52,3.66,4.8,4.8,0,0,0,1.35,3.59,13.37,13.37,0,0,0,4.88,2.55,15.13,15.13,0,0,1,5.88,3.31,7.54,7.54,0,0,1,1.88,5.49,8.92,8.92,0,0,1-1.12,4.43,7.77,7.77,0,0,1-3.16,3.09,9.69,9.69,0,0,1-4.7,1.11,11.62,11.62,0,0,1-8.67-3.75l1.43-1.48a13,13,0,0,0,3.32,2.29,9.12,9.12,0,0,0,3.87.76,6.44,6.44,0,0,0,4.67-1.72,6.14,6.14,0,0,0,1.78-4.64,6.61,6.61,0,0,0-.58-3,5.43,5.43,0,0,0-1.94-2.07,17.89,17.89,0,0,0-3.79-1.77,15.08,15.08,0,0,1-5.89-3.29,6.69,6.69,0,0,1-1.78-4.86,7,7,0,0,1,1-3.72,7.13,7.13,0,0,1,2.85-2.64,8.78,8.78,0,0,1,4.14-1A10.13,10.13,0,0,1,448,157Z"/><path class="cls-1" d="M486.35,156.67l-.26,2.22h-7.84v27.63h-2.48V158.89h-7.94v-2.22Z"/><path class="cls-1" d="M522.31,178.07a9.18,9.18,0,0,1-2.29,6.45,8.56,8.56,0,0,1-6.6,2.48q-4.36,0-6.63-2.48a9.21,9.21,0,0,1-2.26-6.45v-21.4h2.52v21.18a7.59,7.59,0,0,0,1.57,5.12,7.25,7.25,0,0,0,9.61,0,7.67,7.67,0,0,0,1.55-5.1V156.67h2.53Z"/><path class="cls-1" d="M559,159.81q3.46,3.13,3.46,11.55t-3.51,11.81a12.06,12.06,0,0,1-8.65,3.35H544.4V156.67h5.45A13.1,13.1,0,0,1,559,159.81Zm-12.05-1v25.62h3.48a8.77,8.77,0,0,0,6.76-2.83q2.61-2.83,2.61-10.24a18.68,18.68,0,0,0-1.35-8,7.25,7.25,0,0,0-3.42-3.68,11.79,11.79,0,0,0-4.81-.91Z"/><path class="cls-1" d="M585.76,156.67v29.85h-2.53V156.67Z"/><path class="cls-1" d="M625.65,160.11q2.94,3.93,2.94,11.51T625.65,183a9.47,9.47,0,0,1-8,4,9.87,9.87,0,0,1-5.79-1.72A11,11,0,0,1,608,180.1a26.71,26.71,0,0,1,0-16.89,11.17,11.17,0,0,1,3.86-5.25,9.69,9.69,0,0,1,5.79-1.77A9.52,9.52,0,0,1,625.65,160.11Zm-14.18,1.53q-2.24,3.27-2.23,10t2.25,9.92a7.48,7.48,0,0,0,12.31,0q2.18-3.22,2.18-10t-2.2-10a7.44,7.44,0,0,0-12.31,0Z"/></svg>