<svg width="100" height="89" viewBox="0 0 100 89" fill="none" xmlns="http://www.w3.org/2000/svg">
<path d="M15.8203 59.036H24.396C30.3188 67.074 39.8513 72.289 50.6018 72.289C68.5675 72.289 83.1325 57.725 83.1325 39.759C83.1325 21.7931 68.5675 7.2289 50.6018 7.2289C40.9675 7.2289 32.3114 11.4172 26.3549 18.0723H17.2726C24.3667 7.192 36.6444 0 50.6018 0C72.5605 0 90.3605 17.8007 90.3605 39.759C90.3605 49.3621 86.9565 58.17 81.2885 65.042L98.9405 82.694C100.353 84.106 100.353 86.394 98.9405 87.806C97.5295 89.217 95.2405 89.217 93.8295 87.806L76.2035 70.18C69.2865 76.007 60.3545 79.518 50.6018 79.518C35.638 79.518 22.605 71.252 15.8203 59.036Z" fill="white"/>
<path d="M13.2531 22.8906C11.2569 22.8906 9.63867 24.5088 9.63867 26.505C9.63867 28.5012 11.2569 30.1195 13.2531 30.1195H34.9399C36.9361 30.1195 38.5544 28.5012 38.5544 26.505C38.5544 24.5088 36.9361 22.8906 34.9399 22.8906H13.2531Z" fill="white"/>
<path d="M3.6145 34.9395C1.6183 34.9395 0 36.5578 0 38.554C0 40.5502 1.6183 42.1685 3.6145 42.1685H25.3012C27.2975 42.1685 28.9157 40.5502 28.9157 38.554C28.9157 36.5578 27.2975 34.9395 25.3012 34.9395H3.6145Z" fill="white"/>
<path d="M9.63867 50.6028C9.63867 48.6066 11.2569 46.9883 13.2531 46.9883H30.1206C32.1168 46.9883 33.7351 48.6066 33.7351 50.6028C33.7351 52.599 32.1168 54.2174 30.1206 54.2174H13.2531C11.2569 54.2174 9.63867 52.599 9.63867 50.6028Z" fill="white"/>
</svg>
