<svg width="14" height="11" viewBox="0 0 14 11" fill="none" xmlns="http://www.w3.org/2000/svg">
<path d="M11.5 6.53711C12.2921 7.11967 13 8.58644 13 9.4902C13 9.77175 12.7913 10 12.5339 10H12.25M9.25 4.14924C9.7624 3.85747 10.1071 3.31211 10.1071 2.6875C10.1071 2.06289 9.7624 1.51753 9.25 1.22576M1.46611 10H9.67675C9.93418 10 10.1429 9.77175 10.1429 9.4902C10.1429 7.72041 8.64082 6.28571 5.57143 6.28571C2.50204 6.28571 1 7.72041 1 9.4902C1 9.77175 1.20868 10 1.46611 10ZM7.28571 2.6875C7.28571 3.61948 6.5182 4.375 5.57143 4.375C4.62465 4.375 3.85714 3.61948 3.85714 2.6875C3.85714 1.75552 4.62465 1 5.57143 1C6.5182 1 7.28571 1.75552 7.28571 2.6875Z" stroke="#C9C9C9" stroke-linecap="round"/>
</svg>
