<svg width="15" height="12" viewBox="0 0 15 12" fill="none" xmlns="http://www.w3.org/2000/svg">
<path d="M12.6002 7.06909C13.4979 7.73981 14.3002 9.42853 14.3002 10.469C14.3002 10.7932 14.0637 11.056 13.7719 11.056H13.4502M10.0502 4.31989C10.6309 3.98396 11.0216 3.35608 11.0216 2.63695C11.0216 1.91782 10.6309 1.28994 10.0502 0.954012M1.22845 11.056H10.5338C10.8256 11.056 11.0621 10.7932 11.0621 10.469C11.0621 8.43145 9.35979 6.77965 5.88115 6.77965C2.40251 6.77965 0.700195 8.43145 0.700195 10.469C0.700195 10.7932 0.936703 11.056 1.22845 11.056ZM7.824 2.63695C7.824 3.70996 6.95416 4.57981 5.88115 4.57981C4.80814 4.57981 3.93829 3.70996 3.93829 2.63695C3.93829 1.56394 4.80814 0.694092 5.88115 0.694092C6.95416 0.694092 7.824 1.56394 7.824 2.63695Z" stroke="#807871" stroke-linecap="round"/>
</svg>
