<svg width="18" height="14" viewBox="0 0 18 14" fill="none" xmlns="http://www.w3.org/2000/svg">
<path d="M15 8.38281C16.0561 9.15956 17 11.1153 17 12.3203C17 12.6957 16.7218 13 16.3785 13H16M12 5.19899C12.6832 4.80995 13.1429 4.08282 13.1429 3.25C13.1429 2.41718 12.6832 1.69005 12 1.30101M1.62148 13H12.569C12.9122 13 13.1905 12.6957 13.1905 12.3203C13.1905 9.96055 11.1878 8.04762 7.09524 8.04762C3.00272 8.04762 1 9.96055 1 12.3203C1 12.6957 1.27824 13 1.62148 13ZM9.38095 3.25C9.38095 4.49264 8.3576 5.5 7.09524 5.5C5.83287 5.5 4.80952 4.49264 4.80952 3.25C4.80952 2.00736 5.83287 1 7.09524 1C8.3576 1 9.38095 2.00736 9.38095 3.25Z" stroke="#807871" stroke-linecap="round"/>
</svg>
