<svg width="24" height="22" viewBox="0 0 24 22" fill="none" xmlns="http://www.w3.org/2000/svg">
<path d="M15.582 18.485C14.441 19.604 13.237 20.772 12 22C5.57 15.619 0 10.853 0 6.192C0 2.187 3.098 0 6.281 0C8.478 0 10.715 1.042 12 3.248C13.279 1.053 15.521 0.00999999 17.726 0.00999999C20.903 0.00999999 24 2.181 24 6.192C24 7.769 23.351 9.36 22.258 11.02L20.811 9.573C21.561 8.362 22 7.232 22 6.192C22 3.319 19.784 2.01 17.726 2.01C14.469 2.01 12.75 5.485 12 7.031C11.253 5.491 9.516 2.001 6.28 2C3.965 1.999 2 3.516 2 6.192C2 9.634 6.742 14.042 12 19.192L14.168 17.071L15.582 18.485ZM23 13H15V15H23V13Z" fill="white"/>
</svg>
