<svg width="122" height="122" viewBox="0 0 122 122" fill="none" xmlns="http://www.w3.org/2000/svg">
<circle cx="61" cy="61" r="61" fill="#0F2D3C"/>
<path d="M90.2513 42.0077H74.6422L72.1632 37.9793C71.8943 37.5454 71.5193 37.187 71.0736 36.9379C70.6278 36.6887 70.1259 36.557 69.6152 36.5552H53.3876C52.8767 36.5566 52.3745 36.6877 51.9284 36.9364C51.4822 37.1851 51.1066 37.543 50.837 37.9766L48.358 42.0077H32.7488C31.9557 42.0084 31.1953 42.3235 30.6345 42.8839C30.0736 43.4442 29.7583 44.204 29.7576 44.9965V82.456C29.7583 83.2485 30.0736 84.0083 30.6345 84.5687C31.1953 85.129 31.9557 85.4441 32.7488 85.4448H90.2513C91.0444 85.4441 91.8049 85.129 92.3657 84.5687C92.9265 84.0083 93.2419 83.2485 93.2426 82.456V44.9965C93.2419 44.204 92.9265 43.4442 92.3657 42.8839C91.8049 42.3235 91.0444 42.0084 90.2513 42.0077ZM92.7117 82.456C92.711 83.1078 92.4516 83.7327 91.9903 84.1936C91.5291 84.6545 90.9036 84.9137 90.2513 84.9144H32.7488C32.0965 84.9137 31.4711 84.6545 31.0098 84.1936C30.5486 83.7327 30.2891 83.1078 30.2884 82.456V44.9965C30.2891 44.3447 30.5486 43.7198 31.0098 43.2589C31.4711 42.798 32.0965 42.5388 32.7488 42.5381H48.6552L51.2908 38.2551C51.5123 37.8985 51.821 37.604 52.1878 37.3994C52.5546 37.1948 52.9675 37.0868 53.3876 37.0856H69.6152C70.0352 37.0873 70.4479 37.1955 70.8146 37.4001C71.1813 37.6046 71.4901 37.8988 71.712 38.2551L74.3449 42.5381H90.2513C90.9036 42.5388 91.5291 42.798 91.9903 43.2589C92.4516 43.7198 92.711 44.3447 92.7117 44.9965V82.456Z" fill="white"/>
<path d="M90.2512 44.0205H73.7636C73.6876 44.0212 73.6127 44.0023 73.5462 43.9656C73.4797 43.9289 73.4238 43.8756 73.384 43.811L70.4432 39.0373C70.3566 38.8955 70.235 38.7783 70.09 38.697C69.9449 38.6157 69.7814 38.5731 69.6151 38.5732H53.3875C53.2208 38.5726 53.0567 38.615 52.9112 38.6963C52.7656 38.7776 52.6436 38.8951 52.5568 39.0373L49.616 43.811C49.576 43.8749 49.5205 43.9276 49.4546 43.9643C49.3886 44.0009 49.3145 44.0202 49.2391 44.0205H32.7487C32.4902 44.0212 32.2424 44.1243 32.0598 44.3072C31.8772 44.4902 31.7747 44.738 31.7747 44.9964V82.4559C31.7747 82.7143 31.8772 82.9621 32.0598 83.1451C32.2424 83.328 32.4902 83.4312 32.7487 83.4319H90.2512C90.5098 83.4312 90.7576 83.328 90.9402 83.1451C91.1228 82.9621 91.2253 82.7143 91.2253 82.4559V44.9964C91.2253 44.738 91.1228 44.4902 90.9402 44.3072C90.7576 44.1243 90.5098 44.0212 90.2512 44.0205ZM90.6945 44.9964V82.4559C90.6945 82.5086 90.6846 82.5608 90.6653 82.6098L83.5548 77.9184V49.656L90.6812 44.9646C90.6812 44.9646 90.6945 44.9858 90.6945 44.9964ZM32.3028 82.4559V44.9964C32.3037 44.9242 32.3219 44.8533 32.3559 44.7895L39.7876 49.6851V77.7964L32.3559 82.6761C32.3211 82.608 32.3038 82.5323 32.3055 82.4559H32.3028ZM72.8983 70.8852C74.1468 68.7553 74.7703 66.3174 74.6975 63.8501C74.6248 61.3829 73.8587 58.9858 72.4869 56.9331L83.0319 50.0034V77.5683L72.8983 70.8852ZM74.1723 64.2393C74.1723 66.7421 73.4296 69.1887 72.0381 71.2697C70.6466 73.3508 68.6688 74.9728 66.3548 75.9308C64.0408 76.8889 61.4944 77.1398 59.0376 76.6519C56.5809 76.164 54.3241 74.9592 52.5525 73.1899C50.781 71.4205 49.5743 69.1661 49.085 66.7115C48.5957 64.257 48.8457 61.7126 49.8035 59.4C50.7614 57.0875 52.3839 55.1106 54.4661 53.7194C56.5483 52.3281 58.9965 51.585 61.5013 51.584C64.8589 51.5882 68.0778 52.923 70.4517 55.2955C72.8257 57.668 74.1608 60.8845 74.1643 64.2393H74.1723ZM48.3128 64.2393C48.312 66.6086 48.9541 68.9338 50.1707 70.9675L40.3131 77.4357V50.0352L50.6033 56.819C49.1046 59.0037 48.3033 61.5907 48.3048 64.2393H48.3128ZM50.4361 71.4156C51.6361 73.2662 53.2819 74.7861 55.2226 75.8359C57.1633 76.8857 59.3367 77.4319 61.5436 77.4242C63.7504 77.4166 65.92 76.8554 67.8533 75.7921C69.7867 74.7289 71.4219 73.1976 72.609 71.3387L90.1504 82.9015H32.9611L50.4361 71.4156ZM50.0645 44.1L53.0053 39.3264C53.045 39.2614 53.1008 39.2078 53.1673 39.1706C53.2338 39.1335 53.3087 39.1141 53.3849 39.1143H69.6124C69.6882 39.1145 69.7626 39.1341 69.8286 39.1713C69.8945 39.2084 69.9499 39.2618 69.9893 39.3264L72.9302 44.1C73.0171 44.242 73.1393 44.359 73.2848 44.4399C73.4304 44.5207 73.5944 44.5626 73.7609 44.5615H90.2486C90.2777 44.5587 90.307 44.5587 90.3362 44.5615L72.1711 56.4955C70.9559 54.8191 69.3623 53.4525 67.5196 52.5065C65.6769 51.5606 63.637 51.062 61.5654 51.0511C59.4938 51.0403 57.4488 51.5175 55.5963 52.4441C53.7438 53.3707 52.136 54.7205 50.9032 56.3841L32.9637 44.5509H49.2391C49.4058 44.5509 49.5697 44.5086 49.7155 44.4279C49.8613 44.3472 49.9842 44.2307 50.0725 44.0894L50.0645 44.1Z" fill="white"/>
<path d="M61.5013 52.552C59.1871 52.5515 56.9248 53.2367 55.0004 54.521C53.076 55.8053 51.576 57.631 50.6902 59.7672C49.8043 61.9034 49.5724 64.2541 50.0238 66.522C50.4751 68.7899 51.5894 70.8731 53.2258 72.5081C54.8622 74.1432 56.9471 75.2566 59.2168 75.7076C61.4866 76.1585 63.8392 75.9268 65.9771 75.0417C68.115 74.1566 69.9422 72.6578 71.2276 70.735C72.5129 68.8122 73.1987 66.5517 73.1982 64.2394C73.1947 61.1408 71.9612 58.1701 69.7684 55.979C67.5755 53.788 64.6024 52.5555 61.5013 52.552ZM61.5013 75.399C59.2922 75.3995 57.1326 74.7455 55.2956 73.5196C53.4585 72.2936 52.0266 70.5509 51.1808 68.5118C50.3351 66.4727 50.1135 64.2288 50.5442 62.0639C50.9748 59.8989 52.0383 57.9102 53.6002 56.3493C55.1621 54.7883 57.1522 53.7252 59.3188 53.2944C61.4853 52.8636 63.7311 53.0844 65.7721 53.929C67.8131 54.7735 69.5576 56.2039 70.7849 58.0391C72.0123 59.8744 72.6674 62.0321 72.6674 64.2394C72.6639 67.1976 71.4864 70.0336 69.3932 72.1256C67.3 74.2176 64.4619 75.3948 61.5013 75.399Z" fill="white"/>
<path d="M61.5013 55.4639C59.7635 55.4633 58.0646 55.9778 56.6195 56.9421C55.1743 57.9065 54.0479 59.2774 53.3826 60.8815C52.7174 62.4856 52.5432 64.2508 52.8821 65.9539C53.221 67.6569 54.0577 69.2213 55.2865 70.4491C56.5153 71.6769 58.081 72.513 59.7854 72.8516C61.4898 73.1902 63.2565 73.0161 64.8619 72.3514C66.4673 71.6867 67.8393 70.5612 68.8045 69.1172C69.7696 67.6732 70.2845 65.9757 70.284 64.2393C70.2811 61.9128 69.3549 59.6824 67.7085 58.0372C66.062 56.3921 63.8298 55.4667 61.5013 55.4639ZM61.5013 72.4871C59.8686 72.4876 58.2725 72.0043 56.9147 71.0984C55.5569 70.1924 54.4985 68.9045 53.8733 67.3974C53.2481 65.8904 53.0843 64.232 53.4025 62.6319C53.7207 61.0318 54.5067 59.562 55.661 58.4083C56.8153 57.2545 58.2861 56.4687 59.8873 56.1503C61.4886 55.8318 63.1484 55.995 64.6569 56.6192C66.1654 57.2434 67.4547 58.3005 68.3618 59.6569C69.2689 61.0133 69.7531 62.608 69.7531 64.2393C69.751 66.4257 68.881 68.5219 67.3341 70.0681C65.7871 71.6143 63.6894 72.4843 61.5013 72.4871Z" fill="white"/>
<path d="M61.4853 56.9941C60.0303 56.9947 58.6081 57.4263 57.3985 58.2344C56.189 59.0425 55.2464 60.1908 54.6899 61.5341C54.1334 62.8774 53.9881 64.3554 54.2723 65.7813C54.5565 67.2071 55.2574 68.5168 56.2865 69.5446C57.3155 70.5725 58.6265 71.2723 60.0536 71.5558C61.4807 71.8392 62.9599 71.6935 64.3041 71.137C65.6483 70.5805 66.7972 69.6383 67.6056 68.4294C68.4139 67.2205 68.8453 65.7993 68.8453 64.3455C68.8432 62.396 68.067 60.527 66.6871 59.1487C65.3072 57.7704 63.4364 56.9955 61.4853 56.9941ZM61.4853 71.1664C60.1353 71.1659 58.8157 70.7654 57.6934 70.0156C56.5712 69.2658 55.6966 68.2003 55.1803 66.9539C54.6641 65.7075 54.5292 64.3361 54.7929 63.0132C55.0566 61.6902 55.707 60.4751 56.6618 59.5214C57.6166 58.5678 58.833 57.9184 60.1572 57.6554C61.4813 57.3924 62.8537 57.5277 64.101 58.044C65.3482 58.5603 66.4142 59.4346 67.1642 60.5563C67.9142 61.6779 68.3145 62.9966 68.3145 64.3455C68.3124 66.1543 67.5921 67.8884 66.3118 69.1672C65.0314 70.446 63.2956 71.165 61.4853 71.1664Z" fill="white"/>
</svg>
