<svg width="23" height="23" viewBox="0 0 23 23" fill="none" xmlns="http://www.w3.org/2000/svg">
<g clip-path="url(#clip0_1852_6918)">
<path d="M11.5 22.1784C17.3977 22.1784 22.1786 17.3976 22.1786 11.4999C22.1786 5.60225 17.3977 0.821289 11.5 0.821289C5.60237 0.821289 0.821411 5.60225 0.821411 11.4999C0.821411 17.3976 5.60237 22.1784 11.5 22.1784Z" stroke="#A9A9A9" stroke-width="1.8" stroke-linecap="round" stroke-linejoin="round"/>
<path d="M6.07849 13.1426C6.89992 16.0997 10.1856 17.9069 13.1428 17.0854C14.9499 16.4283 16.4285 14.9497 16.9214 13.1426" stroke="#A9A9A9" stroke-width="1.8" stroke-linecap="round" stroke-linejoin="round"/>
<path d="M7.80354 9.0353C7.57671 9.0353 7.39282 8.85141 7.39282 8.62458C7.39282 8.39775 7.57671 8.21387 7.80354 8.21387" stroke="#A9A9A9" stroke-width="1.8" stroke-linecap="round" stroke-linejoin="round"/>
<path d="M7.80353 9.0353C8.03036 9.0353 8.21424 8.85141 8.21424 8.62458C8.21424 8.39775 8.03036 8.21387 7.80353 8.21387" stroke="#A9A9A9" stroke-width="1.8" stroke-linecap="round" stroke-linejoin="round"/>
<path d="M15.1964 9.0353C14.9696 9.0353 14.7857 8.85141 14.7857 8.62458C14.7857 8.39775 14.9696 8.21387 15.1964 8.21387" stroke="#A9A9A9" stroke-width="1.8" stroke-linecap="round" stroke-linejoin="round"/>
<path d="M15.1964 9.0353C15.4232 9.0353 15.6071 8.85141 15.6071 8.62458C15.6071 8.39775 15.4232 8.21387 15.1964 8.21387" stroke="#A9A9A9" stroke-width="1.8" stroke-linecap="round" stroke-linejoin="round"/>
</g>
<defs>
<clipPath id="clip0_1852_6918">
<rect width="23" height="23" fill="white"/>
</clipPath>
</defs>
</svg>
