<svg width="23" height="23" viewBox="0 0 23 23" fill="none" xmlns="http://www.w3.org/2000/svg">
<g clip-path="url(#clip0_1855_6939)">
<path d="M11.5 22.1784C17.3977 22.1784 22.1786 17.3976 22.1786 11.4999C22.1786 5.60225 17.3977 0.821289 11.5 0.821289C5.60237 0.821289 0.821411 5.60225 0.821411 11.4999C0.821411 17.3976 5.60237 22.1784 11.5 22.1784Z" stroke="#1E3C54" stroke-width="1.8" stroke-linecap="round" stroke-linejoin="round"/>
<path d="M7.80354 8.21401C7.57671 8.21401 7.39282 8.03012 7.39282 7.80329C7.39282 7.57646 7.57671 7.39258 7.80354 7.39258" stroke="#1E3C54" stroke-width="1.8" stroke-linecap="round" stroke-linejoin="round"/>
<path d="M7.80353 8.21401C8.03036 8.21401 8.21424 8.03012 8.21424 7.80329C8.21424 7.57646 8.03036 7.39258 7.80353 7.39258" stroke="#1E3C54" stroke-width="1.8" stroke-linecap="round" stroke-linejoin="round"/>
<path d="M15.1964 8.21401C14.9696 8.21401 14.7857 8.03012 14.7857 7.80329C14.7857 7.57646 14.9696 7.39258 15.1964 7.39258" stroke="#1E3C54" stroke-width="1.8" stroke-linecap="round" stroke-linejoin="round"/>
<path d="M15.1964 8.21401C15.4232 8.21401 15.6071 8.03012 15.6071 7.80329C15.6071 7.57646 15.4232 7.39258 15.1964 7.39258" stroke="#1E3C54" stroke-width="1.8" stroke-linecap="round" stroke-linejoin="round"/>
<path d="M11.5 18.0713C14.6756 18.0713 17.25 15.4969 17.25 12.3213H5.75C5.75 15.4969 8.32436 18.0713 11.5 18.0713Z" stroke="#1E3C54" stroke-width="1.8" stroke-linecap="round" stroke-linejoin="round"/>
</g>
<defs>
<clipPath id="clip0_1855_6939">
<rect width="23" height="23" fill="white"/>
</clipPath>
</defs>
</svg>
