<svg width="22" height="22" viewBox="0 0 22 22" fill="none" xmlns="http://www.w3.org/2000/svg">
<path d="M1.6136 18.4886C1.26213 18.8401 1.26213 19.4099 1.6136 19.7614C1.96508 20.1129 2.53492 20.1129 2.8864 19.7614L1.6136 18.4886ZM7.25 14.125L7.8864 13.4886C7.53492 13.1371 6.96508 13.1371 6.6136 13.4886L7.25 14.125ZM9.75 16.625L9.1136 17.2614C9.46508 17.6129 10.0349 17.6129 10.3864 17.2614L9.75 16.625ZM15.375 11L16.0114 10.3636C15.6599 10.0121 15.0901 10.0121 14.7386 10.3636L15.375 11ZM19.7386 16.6364C20.0901 16.9879 20.6599 16.9879 21.0114 16.6364C21.3629 16.2849 21.3629 15.7151 21.0114 15.3636L19.7386 16.6364ZM2.8864 19.7614L7.8864 14.7614L6.6136 13.4886L1.6136 18.4886L2.8864 19.7614ZM6.6136 14.7614L9.1136 17.2614L10.3864 15.9886L7.8864 13.4886L6.6136 14.7614ZM10.3864 17.2614L16.0114 11.6364L14.7386 10.3636L9.1136 15.9886L10.3864 17.2614ZM14.7386 11.6364L19.7386 16.6364L21.0114 15.3636L16.0114 10.3636L14.7386 11.6364ZM4.75 1.9H17.25V0.1H4.75V1.9ZM20.1 4.75V17.25H21.9V4.75H20.1ZM17.25 20.1H4.75V21.9H17.25V20.1ZM1.9 17.25V4.75H0.1V17.25H1.9ZM4.75 20.1C3.17599 20.1 1.9 18.824 1.9 17.25H0.1C0.1 19.8181 2.18188 21.9 4.75 21.9V20.1ZM20.1 17.25C20.1 18.824 18.824 20.1 17.25 20.1V21.9C19.8181 21.9 21.9 19.8181 21.9 17.25H20.1ZM17.25 1.9C18.824 1.9 20.1 3.17599 20.1 4.75H21.9C21.9 2.18188 19.8181 0.1 17.25 0.1V1.9ZM4.75 0.1C2.18188 0.1 0.1 2.18188 0.1 4.75H1.9C1.9 3.17599 3.17599 1.9 4.75 1.9V0.1ZM7.6 6.625C7.6 7.16348 7.16348 7.6 6.625 7.6V9.4C8.15759 9.4 9.4 8.15759 9.4 6.625H7.6ZM6.625 7.6C6.08652 7.6 5.65 7.16348 5.65 6.625H3.85C3.85 8.15759 5.09241 9.4 6.625 9.4V7.6ZM5.65 6.625C5.65 6.08652 6.08652 5.65 6.625 5.65V3.85C5.09241 3.85 3.85 5.09241 3.85 6.625H5.65ZM6.625 5.65C7.16348 5.65 7.6 6.08652 7.6 6.625H9.4C9.4 5.09241 8.15759 3.85 6.625 3.85V5.65Z" fill="#1E3C54"/>
</svg>
