<svg width="27" height="28" viewBox="0 0 27 28" fill="none" xmlns="http://www.w3.org/2000/svg">
<path d="M23.5 11.5265C23.5 5.71286 19.0229 1 13.5 1C7.97715 1 3.5 5.71286 3.5 11.5265" stroke="white" stroke-width="1.5" stroke-linecap="round" stroke-linejoin="round"/>
<path d="M1 17.3659V14.8964C1 13.6887 1.78074 12.6362 2.89366 12.3433L5.0681 11.771C5.54146 11.6464 6 12.0233 6 12.537V19.7252C6 20.2389 5.54146 20.6158 5.0681 20.4912L2.89366 19.9189C1.78074 19.626 1 18.5735 1 17.3659Z" stroke="white" stroke-width="1.5"/>
<path d="M26 17.3659V14.8964C26 13.6887 25.2192 12.6362 24.1064 12.3433L21.9319 11.771C21.4585 11.6464 21 12.0233 21 12.537V19.7252C21 20.2389 21.4585 20.6158 21.9319 20.4912L24.1064 19.9189C25.2192 19.626 26 18.5735 26 17.3659Z" stroke="white" stroke-width="1.5"/>
<path d="M21.2563 20.1498L21.4518 20.4988C21.8836 21.2698 21.6655 22.213 20.9646 22.6056L18.7437 23.8494" stroke="white" stroke-width="1.5"/>
<path d="M18.0225 26.1026L14.6417 27.0084C13.7082 27.2586 12.7196 26.5964 12.4337 25.5295C12.1478 24.4626 12.6729 23.3949 13.6064 23.1447L16.9872 22.2389C17.9207 21.9887 18.9093 22.6509 19.1952 23.7178C19.4811 24.7847 18.956 25.8524 18.0225 26.1026Z" stroke="white" stroke-width="1.5"/>
</svg>
