<svg id="圖層_1" data-name="圖層 1" xmlns="http://www.w3.org/2000/svg" viewBox="0 0 342.13 256.41"><defs><style>.cls-1{fill:#fff;}</style></defs><title>camera_logo_ol</title><path class="cls-1" d="M98.1,117.07a32.9,32.9,0,0,1-5.17-8.89,28.66,28.66,0,0,1-1.1-3.48h22.7V99h-6.45V72.35H91V60.6H84.66V72.35H67.94V99H61.82V64.9H40.13V133H45.6v-5.62H61.82V104.7h22a26.79,26.79,0,0,1-1,3.07,31.88,31.88,0,0,1-5.29,8.81,38.65,38.65,0,0,1-8.19,7.28A44.88,44.88,0,0,1,58.75,129l2.49,5.63a45.12,45.12,0,0,0,11.95-6.17,49.08,49.08,0,0,0,9.44-8.89,40.69,40.69,0,0,0,5.14-8.12,41.12,41.12,0,0,0,5.29,8.57,48.25,48.25,0,0,0,9,8.69,44.58,44.58,0,0,0,10.68,5.92L115,129a39.77,39.77,0,0,1-9.31-4.88A37.79,37.79,0,0,1,98.1,117.07ZM56.44,70.61V92.46H45.6V70.61ZM45.6,121.67V98.17H56.44v23.5ZM102,78.06V99h-11c0-.33,0-.66,0-1V78.06ZM73.65,99V78.06h11V98q0,.5,0,1Z"/><path class="cls-1" d="M166.83,134.66h6.54v-4.39h26.56v4.39h6.54V64H166.83Zm6.54-65.13h26.56V84.26H173.37Zm0,20.28h26.56v14.73H173.37Zm0,20.19h26.56v14.73H173.37Z"/><path class="cls-1" d="M159.59,93.2l-3.19-6.83c-.63-1.35-1.26-2.65-1.9-3.93h8.61V76.73h-9.69V61.34h-6.29V76.73h-12.9v5.71h11.45A147.75,147.75,0,0,1,139,99.86a111.88,111.88,0,0,1-8.11,14.94l2.57,6.7a129.45,129.45,0,0,0,6.74-12.58,137.49,137.49,0,0,0,5.26-13c.57-1.64,1.12-3.32,1.65-5v44.29h6.29V90.82c.69,1.54,1.39,3.07,2.07,4.62q3,6.78,6,14.15l4.06-3.23c-.88-2-1.84-4.17-2.86-6.37Z"/><path class="cls-1" d="M252.89,113.23a84.45,84.45,0,0,1-9.43,4.8V85.59H254V79.88H243.46V62.58h-6.37v17.3h-8.86v5.71h8.86v34.94c-3,1.13-6.1,2.23-9.27,3.29l1,5.79q6.87-2.24,13.28-4.88a79.4,79.4,0,0,0,11.63-5.88Z"/><path class="cls-1" d="M304,77.81V72.1H281V60.51h-6.37V72.1H252.07v5.71h15.45c-.09,7.28-.42,13.57-1,18.82a90.44,90.44,0,0,1-2.57,14.2,35.86,35.86,0,0,1-3.93,9.35,22.34,22.34,0,0,1-5.26,5.87,32.78,32.78,0,0,1-6.41,3.81l3.48,5.21a41.64,41.64,0,0,0,7.24-4.51,27,27,0,0,0,6-6.66,40.51,40.51,0,0,0,4.55-10.3,90,90,0,0,0,3-15.39c.08-.72.16-1.45.24-2.2h21.36q0,8.77-.17,14.57t-.62,9.27a19.35,19.35,0,0,1-1.2,5.13,3.86,3.86,0,0,1-2,2.15,15.78,15.78,0,0,1-4.92.62c-2.23,0-5,0-8.23-.21l.08,6q5.88.33,10.18.17a24,24,0,0,0,6.45-.91,7.71,7.71,0,0,0,3.93-3.65,22.69,22.69,0,0,0,2.16-7.53,114.36,114.36,0,0,0,.91-12.49q.19-7.62.2-18.54H273.3q.42-5.82.58-12.74Z"/><path class="cls-1" d="M20.71,161.48v27.58h11.2l-.35,2.27H18.18V161.48Z"/><path class="cls-1" d="M64.59,161.48l-.3,2.13H53.35v11.2h9.5v2.09h-9.5v12.29H64.86v2.14h-14V161.48Z"/><path class="cls-1" d="M102.68,191.33H99.37l-12.46-27c.23,2.67.34,6.06.34,10.15v16.87H84.86V161.48h3.31l12.46,27.06q-.34-5.23-.35-8.8V161.48h2.4Z"/><path class="cls-1" d="M135.69,161.83a12.5,12.5,0,0,1,3.51,2.48l-1.44,1.53a11,11,0,0,0-3-2,8.25,8.25,0,0,0-3.29-.63,5.65,5.65,0,0,0-4,1.39,4.71,4.71,0,0,0-1.52,3.66,4.83,4.83,0,0,0,1.35,3.6,13.59,13.59,0,0,0,4.88,2.55,15.13,15.13,0,0,1,5.88,3.31,7.53,7.53,0,0,1,1.87,5.49,8.87,8.87,0,0,1-1.11,4.42,7.74,7.74,0,0,1-3.16,3.1,9.69,9.69,0,0,1-4.7,1.11,11.65,11.65,0,0,1-8.68-3.75l1.44-1.48a13.09,13.09,0,0,0,3.31,2.29,9.2,9.2,0,0,0,3.88.76,6.46,6.46,0,0,0,4.67-1.72,6.16,6.16,0,0,0,1.78-4.64,6.55,6.55,0,0,0-.59-3,5.42,5.42,0,0,0-1.94-2.07,18.19,18.19,0,0,0-3.79-1.76,15.24,15.24,0,0,1-5.88-3.29,6.73,6.73,0,0,1-1.79-4.86,7,7,0,0,1,1-3.73A7.18,7.18,0,0,1,127.3,162a8.78,8.78,0,0,1,4.14-1A10.13,10.13,0,0,1,135.69,161.83Z"/><path class="cls-1" d="M174.06,161.48l-.26,2.22H166v27.63h-2.49V163.7h-7.93v-2.22Z"/><path class="cls-1" d="M210,182.87a9.14,9.14,0,0,1-2.28,6.45,8.54,8.54,0,0,1-6.61,2.49q-4.35,0-6.62-2.49a9.18,9.18,0,0,1-2.27-6.45V161.48h2.53v21.18a7.63,7.63,0,0,0,1.57,5.12,7.25,7.25,0,0,0,9.61,0,7.69,7.69,0,0,0,1.55-5.1V161.48H210Z"/><path class="cls-1" d="M246.69,164.62q3.47,3.13,3.46,11.54T246.64,188a12,12,0,0,1-8.65,3.36h-5.88V161.48h5.45A13.05,13.05,0,0,1,246.69,164.62Zm-12.05-1v25.63h3.48a8.8,8.8,0,0,0,6.76-2.84q2.61-2.82,2.61-10.24a18.66,18.66,0,0,0-1.35-7.95,7.25,7.25,0,0,0-3.42-3.68,11.84,11.84,0,0,0-4.82-.92Z"/><path class="cls-1" d="M273.46,161.48v29.85h-2.52V161.48Z"/><path class="cls-1" d="M313.36,164.92q2.94,3.92,2.94,11.51,0,7.44-2.94,11.41a9.46,9.46,0,0,1-8,4,9.92,9.92,0,0,1-5.8-1.72,11,11,0,0,1-3.85-5.19,22.82,22.82,0,0,1-1.38-8.43,23.06,23.06,0,0,1,1.38-8.46,11.32,11.32,0,0,1,3.85-5.25,9.81,9.81,0,0,1,5.8-1.76A9.52,9.52,0,0,1,313.36,164.92Zm-14.19,1.53c-1.48,2.17-2.22,5.52-2.22,10s.75,7.75,2.25,9.91a7.47,7.47,0,0,0,12.31,0q2.17-3.22,2.18-10t-2.2-10a7.46,7.46,0,0,0-12.32,0Z"/></svg>