<svg id="圖層_1" data-name="圖層 1" xmlns="http://www.w3.org/2000/svg" viewBox="0 0 290.11 256.41"><defs><style>.cls-1{fill:#fff;}</style></defs><title>camera_logo_ol</title><path class="cls-1" d="M253.38,56.59H194.57L185.23,41.4a11.34,11.34,0,0,0-9.6-5.37H114.49a11.35,11.35,0,0,0-9.61,5.36l-9.34,15.2H36.73A11.28,11.28,0,0,0,25.46,67.86V209.11a11.28,11.28,0,0,0,11.27,11.27H253.38a11.28,11.28,0,0,0,11.27-11.27V67.86A11.28,11.28,0,0,0,253.38,56.59Zm9.27,152.52a9.28,9.28,0,0,1-9.27,9.27H36.73a9.28,9.28,0,0,1-9.27-9.27V67.86a9.28,9.28,0,0,1,9.27-9.27H96.66l9.93-16.15a9.33,9.33,0,0,1,7.9-4.41h61.14a9.35,9.35,0,0,1,7.9,4.41l9.92,16.15h59.93a9.28,9.28,0,0,1,9.27,9.27Z"/><path class="cls-1" d="M253.38,64.18H191.26a1.66,1.66,0,0,1-1.43-.79l-11.08-18a3.65,3.65,0,0,0-3.12-1.75H114.49a3.65,3.65,0,0,0-3.13,1.75l-11.08,18a1.68,1.68,0,0,1-1.42.79H36.73a3.68,3.68,0,0,0-3.67,3.68V209.11a3.68,3.68,0,0,0,3.67,3.68H253.38a3.68,3.68,0,0,0,3.67-3.68V67.86A3.68,3.68,0,0,0,253.38,64.18Zm1.67,3.68V209.11a1.58,1.58,0,0,1-.11.58L228.15,192V85.43L255,67.74S255.05,67.82,255.05,67.86Zm-220,141.25V67.86a1.7,1.7,0,0,1,.2-.78l28,18.46v106l-28,18.4A1.74,1.74,0,0,1,35.06,209.11ZM188,165.48a49.6,49.6,0,0,0-1.55-52.61l39.73-26.13V190.68Zm4.8-25.06A47.72,47.72,0,1,1,145.06,92.7,47.77,47.77,0,0,1,192.77,140.42Zm-97.43,0a49.42,49.42,0,0,0,7,25.37L65.23,190.18V86.86L104,112.44A49.44,49.44,0,0,0,95.34,140.42Zm8,27.06a49.66,49.66,0,0,0,83.54-.29L253,210.79H37.53Zm-1.4-103,11.08-18a1.67,1.67,0,0,1,1.43-.8h61.14a1.67,1.67,0,0,1,1.42.8l11.08,18a3.64,3.64,0,0,0,3.13,1.74h62.12a1.75,1.75,0,0,1,.33,0l-68.44,45a49.66,49.66,0,0,0-80.13-.42L37.54,66.18H98.86A3.7,3.7,0,0,0,102,64.44Z"/><path class="cls-1" d="M145.06,96.35a44.08,44.08,0,1,0,44.07,44.07A44.12,44.12,0,0,0,145.06,96.35Zm0,86.15a42.08,42.08,0,1,1,42.07-42.08A42.13,42.13,0,0,1,145.06,182.5Z"/><path class="cls-1" d="M145.06,107.33a33.1,33.1,0,1,0,33.09,33.09A33.13,33.13,0,0,0,145.06,107.33Zm0,64.19a31.1,31.1,0,1,1,31.09-31.1A31.13,31.13,0,0,1,145.06,171.52Z"/><path class="cls-1" d="M145,113.1a27.72,27.72,0,1,0,27.73,27.72A27.75,27.75,0,0,0,145,113.1Zm0,53.44a25.72,25.72,0,1,1,25.73-25.72A25.75,25.75,0,0,1,145,166.54Z"/></svg>