<svg width="20" height="20" viewBox="0 0 20 20" fill="none" xmlns="http://www.w3.org/2000/svg">
<path d="M3.33337 5.14706H16.6667M8.33337 13.9706V8.67647M11.6667 13.9706V8.67647M13.3334 17.5H6.66671C5.74623 17.5 5.00004 16.7099 5.00004 15.7353V6.02941C5.00004 5.5421 5.37314 5.14706 5.83337 5.14706H14.1667C14.6269 5.14706 15 5.5421 15 6.02941V15.7353C15 16.7099 14.2538 17.5 13.3334 17.5ZM8.33337 5.14706H11.6667C12.1269 5.14706 12.5 4.75202 12.5 4.26471V3.38235C12.5 2.89504 12.1269 2.5 11.6667 2.5H8.33337C7.87314 2.5 7.50004 2.89504 7.50004 3.38235V4.26471C7.50004 4.75202 7.87314 5.14706 8.33337 5.14706Z" stroke="white" stroke-width="1.5" stroke-linecap="round" stroke-linejoin="round"/>
</svg>
