<svg width="24" height="24" viewBox="0 0 24 24" fill="none" xmlns="http://www.w3.org/2000/svg">
<rect x="1" y="1" width="22" height="22" rx="3" fill="#D9D9D9"/>
<rect x="1" y="1" width="22" height="22" rx="3" stroke="#D9D9D9" stroke-width="2"/>
<path d="M10.765 12.375V15.3C10.3983 15.57 10.0067 15.7683 9.59 15.895C9.17667 16.0183 8.73333 16.08 8.26 16.08C7.67 16.08 7.135 15.9883 6.655 15.805C6.17833 15.6217 5.77 15.3667 5.43 15.04C5.09333 14.7133 4.83333 14.3233 4.65 13.87C4.46667 13.4167 4.375 12.9217 4.375 12.385C4.375 11.8417 4.46333 11.3433 4.64 10.89C4.81667 10.4367 5.06667 10.0467 5.39 9.72C5.71667 9.39333 6.11167 9.14 6.575 8.96C7.03833 8.78 7.55833 8.69 8.135 8.69C8.42833 8.69 8.70167 8.71333 8.955 8.76C9.21167 8.80667 9.44833 8.87167 9.665 8.955C9.885 9.035 10.085 9.13333 10.265 9.25C10.445 9.36667 10.61 9.495 10.76 9.635L10.375 10.245C10.315 10.3417 10.2367 10.4017 10.14 10.425C10.0433 10.445 9.93833 10.42 9.825 10.35C9.715 10.2867 9.605 10.2233 9.495 10.16C9.385 10.0967 9.26167 10.0417 9.125 9.995C8.99167 9.94833 8.84 9.91 8.67 9.88C8.50333 9.85 8.31 9.835 8.09 9.835C7.73333 9.835 7.41 9.895 7.12 10.015C6.83333 10.135 6.58833 10.3067 6.385 10.53C6.18167 10.7533 6.025 11.0217 5.915 11.335C5.805 11.6483 5.75 11.9983 5.75 12.385C5.75 12.7983 5.80833 13.1683 5.925 13.495C6.045 13.8183 6.21167 14.0933 6.425 14.32C6.64167 14.5433 6.90167 14.715 7.205 14.835C7.50833 14.9517 7.84667 15.01 8.22 15.01C8.48667 15.01 8.725 14.9817 8.935 14.925C9.145 14.8683 9.35 14.7917 9.55 14.695V13.385H8.64C8.55333 13.385 8.485 13.3617 8.435 13.315C8.38833 13.265 8.365 13.205 8.365 13.135V12.375H10.765ZM13.4109 16H12.0609V8.77H13.4109V16ZM16.3796 9.84V11.98H19.0896V13.055H16.3796V16H15.0296V8.77H19.5896V9.84H16.3796Z" fill="black"/>
</svg>
