<svg width="22" height="20" viewBox="0 0 22 20" fill="none" xmlns="http://www.w3.org/2000/svg">
<path fill-rule="evenodd" clip-rule="evenodd" d="M2.45953 2.72107C3.39434 1.78653 4.66206 1.26154 5.98389 1.26154C7.30572 1.26154 8.57343 1.78653 9.50825 2.72107L10.9688 4.18041L12.4294 2.72107C12.8893 2.24495 13.4393 1.86519 14.0475 1.60393C14.6557 1.34267 15.3098 1.20516 15.9717 1.19941C16.6336 1.19366 17.29 1.31978 17.9027 1.57043C18.5153 1.82108 19.0719 2.19123 19.5399 2.65928C20.008 3.12733 20.3781 3.68391 20.6288 4.29654C20.8794 4.90917 21.0056 5.56559 20.9998 6.22749C20.9941 6.88939 20.8565 7.54351 20.5953 8.1517C20.334 8.75988 19.9543 9.30994 19.4782 9.76979L10.9688 18.2803L2.45953 9.76979C1.52499 8.83497 1 7.56726 1 6.24543C1 4.9236 1.52499 3.65588 2.45953 2.72107Z" stroke="#2C2020" stroke-width="2" stroke-linejoin="round"/>
</svg>
