<svg width="25" height="25" viewBox="0 0 25 25" fill="none" xmlns="http://www.w3.org/2000/svg">
<path fill-rule="evenodd" clip-rule="evenodd" d="M4.30638 6.90581C5.20651 6.00595 6.42719 5.50044 7.69998 5.50044C8.97276 5.50044 10.1934 6.00595 11.0936 6.90581L12.5 8.31101L13.9064 6.90581C14.3492 6.44736 14.8788 6.08169 15.4644 5.83013C16.0501 5.57856 16.6799 5.44615 17.3172 5.44061C17.9546 5.43507 18.5866 5.55652 19.1766 5.79787C19.7665 6.03922 20.3024 6.39563 20.7531 6.84632C21.2038 7.297 21.5602 7.83293 21.8015 8.42283C22.0429 9.01274 22.1643 9.6448 22.1588 10.2821C22.1532 10.9195 22.0208 11.5493 21.7693 12.135C21.5177 12.7206 21.152 13.2502 20.6936 13.693L12.5 21.8878L4.30638 13.693C3.40651 12.7929 2.901 11.5722 2.901 10.2994C2.901 9.02662 3.40651 7.80595 4.30638 6.90581V6.90581Z" stroke="#E20612" stroke-width="2" stroke-linejoin="round"/>
</svg>
