<svg width="21" height="21" viewBox="0 0 21 21" fill="none" xmlns="http://www.w3.org/2000/svg">
<path fill-rule="evenodd" clip-rule="evenodd" d="M3.672 5.67232C4.42211 4.92244 5.43934 4.50118 6.5 4.50118C7.56066 4.50118 8.57789 4.92244 9.328 5.67232L10.5 6.84332L11.672 5.67232C12.041 5.29028 12.4824 4.98555 12.9704 4.77592C13.4584 4.56628 13.9833 4.45594 14.5144 4.45132C15.0455 4.44671 15.5722 4.54791 16.0638 4.74904C16.5554 4.95016 17.002 5.24717 17.3776 5.62274C17.7531 5.99832 18.0502 6.44492 18.2513 6.93651C18.4524 7.42809 18.5536 7.95481 18.549 8.48593C18.5444 9.01705 18.434 9.54193 18.2244 10.0299C18.0148 10.518 17.71 10.9593 17.328 11.3283L10.5 18.1573L3.672 11.3283C2.92212 10.5782 2.50085 9.56098 2.50085 8.50032C2.50085 7.43967 2.92212 6.42244 3.672 5.67232V5.67232Z" stroke="#E20612" stroke-width="2" stroke-linejoin="round"/>
</svg>
