<svg width="24" height="25" viewBox="0 0 24 25" fill="none" xmlns="http://www.w3.org/2000/svg">
<path d="M3.41789 18.8046C3.02737 19.1951 3.02737 19.8283 3.41789 20.2188C3.80842 20.6094 4.44158 20.6094 4.83211 20.2188L3.41789 18.8046ZM8.625 15.0117L9.33211 14.3046C8.94158 13.9141 8.30842 13.9141 7.91789 14.3046L8.625 15.0117ZM10.875 17.2617L10.1679 17.9688C10.5584 18.3594 11.1916 18.3594 11.5821 17.9688L10.875 17.2617ZM15.9375 12.1992L16.6446 11.4921C16.2541 11.1016 15.6209 11.1016 15.2304 11.4921L15.9375 12.1992ZM19.7304 17.4063C20.1209 17.7969 20.7541 17.7969 21.1446 17.4063C21.5351 17.0158 21.5351 16.3826 21.1446 15.9921L19.7304 17.4063ZM4.83211 20.2188L9.33211 15.7188L7.91789 14.3046L3.41789 18.8046L4.83211 20.2188ZM7.91789 15.7188L10.1679 17.9688L11.5821 16.5546L9.33211 14.3046L7.91789 15.7188ZM11.5821 17.9688L16.6446 12.9063L15.2304 11.4921L10.1679 16.5546L11.5821 17.9688ZM15.2304 12.9063L19.7304 17.4063L21.1446 15.9921L16.6446 11.4921L15.2304 12.9063ZM6.375 4.19922H17.625V2.19922H6.375V4.19922ZM20 6.57422V17.8242H22V6.57422H20ZM17.625 20.1992H6.375V22.1992H17.625V20.1992ZM4 17.8242V6.57422H2V17.8242H4ZM6.375 20.1992C5.06332 20.1992 4 19.1359 4 17.8242H2C2 20.2405 3.95875 22.1992 6.375 22.1992V20.1992ZM20 17.8242C20 19.1359 18.9367 20.1992 17.625 20.1992V22.1992C20.0412 22.1992 22 20.2405 22 17.8242H20ZM17.625 4.19922C18.9367 4.19922 20 5.26254 20 6.57422H22C22 4.15797 20.0412 2.19922 17.625 2.19922V4.19922ZM6.375 2.19922C3.95875 2.19922 2 4.15797 2 6.57422H4C4 5.26254 5.06332 4.19922 6.375 4.19922V2.19922ZM8.75 8.26172C8.75 8.64141 8.4422 8.94922 8.0625 8.94922V10.9492C9.54677 10.9492 10.75 9.74598 10.75 8.26172H8.75ZM8.0625 8.94922C7.6828 8.94922 7.375 8.64141 7.375 8.26172H5.375C5.375 9.74598 6.57823 10.9492 8.0625 10.9492V8.94922ZM7.375 8.26172C7.375 7.88202 7.6828 7.57422 8.0625 7.57422V5.57422C6.57823 5.57422 5.375 6.77745 5.375 8.26172H7.375ZM8.0625 7.57422C8.4422 7.57422 8.75 7.88202 8.75 8.26172H10.75C10.75 6.77745 9.54677 5.57422 8.0625 5.57422V7.57422Z" fill="black"/>
</svg>
