<svg width="24" height="24" viewBox="0 0 24 24" fill="none" xmlns="http://www.w3.org/2000/svg">
<path d="M1.66789 20.2304C1.27737 20.6209 1.27737 21.2541 1.66789 21.6446C2.05842 22.0351 2.69158 22.0351 3.08211 21.6446L1.66789 20.2304ZM7.875 15.4375L8.58211 14.7304C8.19158 14.3399 7.55842 14.3399 7.16789 14.7304L7.875 15.4375ZM10.625 18.1875L9.91789 18.8946C10.3084 19.2851 10.9416 19.2851 11.3321 18.8946L10.625 18.1875ZM16.8125 12L17.5196 11.2929C17.1291 10.9024 16.4959 10.9024 16.1054 11.2929L16.8125 12ZM21.6054 18.2071C21.9959 18.5976 22.6291 18.5976 23.0196 18.2071C23.4101 17.8166 23.4101 17.1834 23.0196 16.7929L21.6054 18.2071ZM3.08211 21.6446L8.58211 16.1446L7.16789 14.7304L1.66789 20.2304L3.08211 21.6446ZM7.16789 16.1446L9.91789 18.8946L11.3321 17.4804L8.58211 14.7304L7.16789 16.1446ZM11.3321 18.8946L17.5196 12.7071L16.1054 11.2929L9.91789 17.4804L11.3321 18.8946ZM16.1054 12.7071L21.6054 18.2071L23.0196 16.7929L17.5196 11.2929L16.1054 12.7071ZM5.125 2H18.875V0H5.125V2ZM22 5.125V18.875H24V5.125H22ZM18.875 22H5.125V24H18.875V22ZM2 18.875V5.125H0V18.875H2ZM5.125 22C3.39911 22 2 20.6009 2 18.875H0C0 21.7055 2.29454 24 5.125 24V22ZM22 18.875C22 20.6009 20.6009 22 18.875 22V24C21.7055 24 24 21.7055 24 18.875H22ZM18.875 2C20.6009 2 22 3.39911 22 5.125H24C24 2.29454 21.7055 0 18.875 0V2ZM5.125 0C2.29454 0 0 2.29454 0 5.125H2C2 3.39911 3.39911 2 5.125 2V0ZM8.25 7.1875C8.25 7.7743 7.7743 8.25 7.1875 8.25V10.25C8.87887 10.25 10.25 8.87887 10.25 7.1875H8.25ZM7.1875 8.25C6.6007 8.25 6.125 7.7743 6.125 7.1875H4.125C4.125 8.87887 5.49613 10.25 7.1875 10.25V8.25ZM6.125 7.1875C6.125 6.6007 6.6007 6.125 7.1875 6.125V4.125C5.49613 4.125 4.125 5.49613 4.125 7.1875H6.125ZM7.1875 6.125C7.7743 6.125 8.25 6.6007 8.25 7.1875H10.25C10.25 5.49613 8.87887 4.125 7.1875 4.125V6.125Z" fill="#A9A9A9"/>
</svg>
