<svg width="20" height="21" viewBox="0 0 20 21" fill="none" xmlns="http://www.w3.org/2000/svg">
<path d="M14.6993 0.5C14.2481 0.525143 13.797 0.575428 13.3709 0.726284C12.6942 0.97771 12.0426 1.35485 11.4912 1.90799C11.3326 2.00888 11.1986 2.14426 11.0991 2.30411C10.9997 2.46396 10.9373 2.6442 10.9166 2.83149C10.896 3.01879 10.9175 3.20834 10.9798 3.38614C11.042 3.56394 11.1432 3.72544 11.2761 3.85868C11.4089 3.99193 11.5699 4.09351 11.7471 4.15593C11.9243 4.21834 12.1133 4.23999 12.3 4.21926C12.4867 4.19854 12.6663 4.13597 12.8257 4.0362C12.985 3.93642 13.12 3.80198 13.2206 3.64283C13.4962 3.36626 13.8221 3.21541 14.1729 3.08969C15.0501 2.78798 16.1278 2.91369 16.8296 3.64283C17.807 4.62339 17.807 6.25767 16.8296 7.26337L13.0702 11.0348C11.9674 12.141 11.0652 12.2416 10.4135 12.2165C9.76191 12.1913 9.38597 11.8896 9.38597 11.8896C9.24115 11.8071 9.08154 11.754 8.91626 11.7333C8.75098 11.7126 8.58326 11.7248 8.42268 11.7692C8.2621 11.8135 8.1118 11.8892 7.98036 11.9918C7.84892 12.0944 7.73892 12.222 7.65664 12.3673C7.57436 12.5126 7.52141 12.6727 7.50081 12.8385C7.48021 13.0043 7.49236 13.1726 7.53658 13.3337C7.5808 13.4948 7.65622 13.6456 7.75852 13.7774C7.86082 13.9093 7.98802 14.0196 8.13283 14.1022C8.13283 14.1022 8.98496 14.6553 10.2381 14.7307C11.4912 14.8062 13.2456 14.3285 14.7744 12.7696L18.5338 8.99821C20.4887 7.03709 20.4887 3.86911 18.5338 1.93313C17.8321 1.22914 17.005 0.801712 16.1028 0.600571C15.6516 0.5 15.1504 0.5 14.6993 0.525143V0.5ZM9.68672 6.30795C8.43359 6.25766 6.70426 6.68509 5.22556 8.19365L1.46617 11.965C-0.488722 13.9262 -0.488722 17.0941 1.46617 19.0301C2.86967 20.4381 4.87469 20.8404 6.62907 20.2118C7.30577 19.9604 7.95739 19.5833 8.50877 19.0301C8.66742 18.9292 8.80143 18.7939 8.90089 18.634C9.00035 18.4742 9.06271 18.2939 9.08337 18.1066C9.10403 17.9193 9.08245 17.7298 9.02024 17.552C8.95802 17.3742 8.85676 17.2127 8.72394 17.0794C8.59112 16.9462 8.43014 16.8446 8.2529 16.7822C8.07567 16.7198 7.88671 16.6981 7.70002 16.7189C7.51332 16.7396 7.33365 16.8021 7.17431 16.9019C7.01496 17.0017 6.88002 17.1361 6.77945 17.2953C6.50376 17.5719 6.17795 17.7227 5.82707 17.8484C4.94987 18.1501 3.87218 18.0244 3.17043 17.2953C2.19298 16.3147 2.19298 14.6804 3.17043 13.6747L6.92982 9.90335C7.93233 8.89764 8.80952 8.77193 9.51128 8.79707C10.213 8.82221 10.6892 9.02336 10.6892 9.02336C10.8361 9.13384 11.0053 9.21061 11.185 9.24824C11.3647 9.28588 11.5504 9.28346 11.729 9.24115C11.9077 9.19885 12.0748 9.11769 12.2188 9.00342C12.3627 8.88915 12.4799 8.74455 12.5619 8.57986C12.644 8.41516 12.689 8.23439 12.6938 8.05031C12.6986 7.86624 12.663 7.68336 12.5895 7.51461C12.5161 7.34586 12.4066 7.19536 12.2688 7.07374C12.131 6.95212 11.9682 6.86236 11.792 6.8108C11.792 6.8108 10.9399 6.30795 9.68672 6.25766V6.30795Z" fill="#999999"/>
</svg>
