<svg id="圖層_1" data-name="圖層 1" xmlns="http://www.w3.org/2000/svg" viewBox="0 0 300 300"><defs><style>.cls-1{fill:#fff;}</style></defs><title>camera_logo_ol</title><path class="cls-1" d="M227.78,31.76H185.33l-6.68-10.88a8.5,8.5,0,0,0-7.19-4H127.17a8.49,8.49,0,0,0-7.19,4l-6.69,10.88H70.84A8.45,8.45,0,0,0,62.4,40.2V142.53A8.45,8.45,0,0,0,70.84,151H227.78a8.44,8.44,0,0,0,8.44-8.43V40.2A8.44,8.44,0,0,0,227.78,31.76Zm6.44,110.77a6.44,6.44,0,0,1-6.44,6.43H70.84a6.44,6.44,0,0,1-6.44-6.43V40.2a6.45,6.45,0,0,1,6.44-6.44h43.57l7.27-11.83a6.49,6.49,0,0,1,5.49-3.07h44.29A6.51,6.51,0,0,1,177,21.93l7.27,11.83h43.56a6.45,6.45,0,0,1,6.44,6.44Z"/><path class="cls-1" d="M227.78,37.26h-45a.94.94,0,0,1-.8-.44l-8-13.06a2.92,2.92,0,0,0-2.5-1.39H127.17a2.91,2.91,0,0,0-2.5,1.4l-8,13.05a.94.94,0,0,1-.79.44h-45a2.94,2.94,0,0,0-2.93,2.94V142.52a2.94,2.94,0,0,0,2.93,2.94H227.78a2.94,2.94,0,0,0,2.94-2.94V40.2A2.94,2.94,0,0,0,227.78,37.26ZM69.91,142.52V40.2c0-.05,0-.09,0-.13L89.76,53.16v76.45l-19.83,13S69.91,142.57,69.91,142.52Zm110.86-31.69a36.15,36.15,0,0,0-1.11-37.94l28.12-18.5v74.27Zm2.84-18.07a34.3,34.3,0,1,1-34.3-34.29A34.34,34.34,0,0,1,183.61,92.76Zm-70.59,0a36.14,36.14,0,0,0,5,18.29L91.76,128.29V54.48l27.41,18.09A36.1,36.1,0,0,0,113,92.76Zm6,20a36.25,36.25,0,0,0,60.68-.21l46.85,30.92H72.34ZM209.78,130V53.07l18.94-12.45V142.48ZM118.35,37.86l8-13a.92.92,0,0,1,.8-.44h44.29a.93.93,0,0,1,.8.44l8,13.05a2.91,2.91,0,0,0,2.5,1.4h44.36l-48.63,32a36.24,36.24,0,0,0-58.17-.3l-48-31.68h43.51A3,3,0,0,0,118.35,37.86Z"/><path class="cls-1" d="M149.31,60.56a32.21,32.21,0,1,0,32.21,32.2A32.24,32.24,0,0,0,149.31,60.56Zm0,62.41a30.21,30.21,0,1,1,30.21-30.21A30.24,30.24,0,0,1,149.31,123Z"/><path class="cls-1" d="M149.31,68.51a24.25,24.25,0,1,0,24.25,24.25A24.28,24.28,0,0,0,149.31,68.51Zm0,46.5a22.25,22.25,0,1,1,22.25-22.25A22.28,22.28,0,0,1,149.31,115Z"/><path class="cls-1" d="M149.24,72.69A20.36,20.36,0,1,0,169.6,93.05,20.39,20.39,0,0,0,149.24,72.69Zm0,38.72A18.36,18.36,0,1,1,167.6,93.05,18.38,18.38,0,0,1,149.24,111.41Z"/><path class="cls-1" d="M95.46,227a23.69,23.69,0,0,1-3.74-6.44,19.26,19.26,0,0,1-.78-2.52h16.42v-4.14h-4.67v-19.3H90.34v-8.51H85.72v8.51H73.61v19.3H69.18v-24.7H53.47V238.5h4v-4.08H69.18V218h15.9a17.89,17.89,0,0,1-.71,2.22,23.44,23.44,0,0,1-3.83,6.38,28.05,28.05,0,0,1-5.94,5.28A33.09,33.09,0,0,1,67,235.62l1.8,4.08a32.76,32.76,0,0,0,8.66-4.47,35.22,35.22,0,0,0,6.83-6.44A29.87,29.87,0,0,0,88,222.9a29.62,29.62,0,0,0,3.83,6.22,34.89,34.89,0,0,0,6.5,6.29A32,32,0,0,0,106,239.7l1.68-4.08a28.9,28.9,0,0,1-6.74-3.53A27.52,27.52,0,0,1,95.46,227ZM65.28,193.3v15.83H57.43V193.3Zm-7.85,37v-17h7.85v17Zm40.88-31.6v15.17H90.37c0-.24,0-.48,0-.72V198.69ZM77.75,213.86V198.69h8v14.45c0,.24,0,.48,0,.72Z"/><path class="cls-1" d="M140,209.67l-2.3-4.95c-.46-1-.92-1.92-1.38-2.85h6.23v-4.13h-7V186.59H131v11.15h-9.35v4.13h8.3a110.41,110.41,0,0,1-4.82,12.62,81.44,81.44,0,0,1-5.88,10.82l1.86,4.86a97.59,97.59,0,0,0,4.89-9.11q2.11-4.56,3.8-9.39c.42-1.2.81-2.44,1.2-3.68v32.13h4.56V207.94c.49,1.12,1,2.22,1.5,3.34q2.15,4.92,4.37,10.25l2.94-2.33q-1-2.22-2.07-4.62Z"/><path class="cls-1" d="M145.25,239.7H150v-3.18h19.25v3.18H174V188.5H145.25ZM150,192.52h19.25v10.67H150Zm0,14.69h19.25v10.67H150Zm0,14.62h19.25v10.68H150Z"/><path class="cls-1" d="M244.64,198.52v-4.14H228V186h-4.62v8.39H207v4.14h11.2q-.09,7.9-.74,13.63a65.2,65.2,0,0,1-1.85,10.28,25.69,25.69,0,0,1-2.85,6.78,16,16,0,0,1-3.81,4.25,23.89,23.89,0,0,1-4.64,2.76l2.51,3.78a30,30,0,0,0,5.25-3.27,19.77,19.77,0,0,0,4.35-4.82,29.68,29.68,0,0,0,3.29-7.47,64.7,64.7,0,0,0,2.16-11.15c.06-.51.12-1,.17-1.59h15.48q0,6.36-.12,10.55t-.45,6.72a14.14,14.14,0,0,1-.87,3.72,2.76,2.76,0,0,1-1.44,1.55,11.53,11.53,0,0,1-3.57.45c-1.62,0-3.6,0-6-.15l.06,4.32q4.25.24,7.37.12a17.27,17.27,0,0,0,4.68-.66,5.54,5.54,0,0,0,2.84-2.64,16.52,16.52,0,0,0,1.56-5.45,81.15,81.15,0,0,0,.66-9q.15-5.52.15-13.43h-20c.21-2.81.34-5.89.42-9.23Z"/><path class="cls-1" d="M207.59,224.17a60.11,60.11,0,0,1-6.83,3.48v-23.5h7.61V200h-7.61V187.49h-4.62V200h-6.41v4.14h6.41v25.31c-2.19.82-4.41,1.62-6.71,2.39l.72,4.19q5-1.62,9.62-3.53a57.54,57.54,0,0,0,8.42-4.26Z"/><path class="cls-1" d="M39.4,259.13v20h8.11l-.25,1.64H37.57V259.13Z"/><path class="cls-1" d="M71.19,259.13,71,260.67H63.05v8.11h6.88v1.52H63.05v8.9h8.33v1.55H61.21V259.13Z"/><path class="cls-1" d="M98.78,280.75h-2.4l-9-19.57c.17,1.93.25,4.39.25,7.35v12.22H85.87V259.13h2.4l9,19.6c-.17-2.53-.26-4.65-.26-6.38V259.13h1.74Z"/><path class="cls-1" d="M122.69,259.38a9,9,0,0,1,2.54,1.8l-1,1.1a8.12,8.12,0,0,0-2.16-1.47,6,6,0,0,0-2.38-.45,4.08,4.08,0,0,0-2.88,1,3.84,3.84,0,0,0-.12,5.25,9.62,9.62,0,0,0,3.53,1.85,10.8,10.8,0,0,1,4.26,2.4,5.44,5.44,0,0,1,1.36,4,6.49,6.49,0,0,1-.8,3.2,5.62,5.62,0,0,1-2.29,2.24,7,7,0,0,1-3.41.81,8.41,8.41,0,0,1-6.28-2.72l1-1.07a9.36,9.36,0,0,0,2.4,1.66,6.77,6.77,0,0,0,2.81.55,4.69,4.69,0,0,0,3.38-1.25,4.45,4.45,0,0,0,1.29-3.36,4.73,4.73,0,0,0-.43-2.15,3.89,3.89,0,0,0-1.4-1.5,13.08,13.08,0,0,0-2.75-1.27,11,11,0,0,1-4.26-2.39,4.86,4.86,0,0,1-1.29-3.52,5,5,0,0,1,.74-2.7,5.17,5.17,0,0,1,2.07-1.91,6.37,6.37,0,0,1,3-.69A7.33,7.33,0,0,1,122.69,259.38Z"/><path class="cls-1" d="M150.49,259.13l-.19,1.61h-5.68v20h-1.8v-20h-5.75v-1.61Z"/><path class="cls-1" d="M176.53,274.63a6.61,6.61,0,0,1-1.66,4.67,7.27,7.27,0,0,1-9.58,0,6.69,6.69,0,0,1-1.64-4.67v-15.5h1.83v15.34a5.49,5.49,0,0,0,1.14,3.71,5.25,5.25,0,0,0,7,0,5.52,5.52,0,0,0,1.12-3.69V259.13h1.83Z"/><path class="cls-1" d="M203.1,261.4q2.51,2.27,2.51,8.36t-2.54,8.56a8.74,8.74,0,0,1-6.27,2.43h-4.26V259.13h3.94A9.47,9.47,0,0,1,203.1,261.4Zm-8.73-.73v18.56h2.52a6.37,6.37,0,0,0,4.9-2.05c1.26-1.36,1.89-3.84,1.89-7.42a13.54,13.54,0,0,0-1-5.76,5.24,5.24,0,0,0-2.48-2.66,8.41,8.41,0,0,0-3.48-.67Z"/><path class="cls-1" d="M222.5,259.13v21.62h-1.84V259.13Z"/><path class="cls-1" d="M251.4,261.62q2.13,2.83,2.13,8.33t-2.13,8.27a6.87,6.87,0,0,1-5.83,2.88,7.2,7.2,0,0,1-4.2-1.25,7.92,7.92,0,0,1-2.79-3.76,16.65,16.65,0,0,1-1-6.1,16.81,16.81,0,0,1,1-6.13,8.15,8.15,0,0,1,2.79-3.8,7,7,0,0,1,4.2-1.28A6.91,6.91,0,0,1,251.4,261.62Zm-10.28,1.1q-1.6,2.37-1.61,7.27c0,3.21.54,5.61,1.63,7.18a5.4,5.4,0,0,0,8.91,0c1.06-1.55,1.58-4,1.58-7.23s-.53-5.67-1.59-7.24a5.4,5.4,0,0,0-8.92,0Z"/></svg>