<svg width="22" height="20" viewBox="0 0 22 20" fill="none" xmlns="http://www.w3.org/2000/svg">
<path d="M6.15039 4.09023V5.09023C6.50606 5.09023 6.83496 4.90132 7.01417 4.59411L6.15039 4.09023ZM7.81289 1.24023V0.240234C7.45722 0.240234 7.12832 0.429146 6.94911 0.736363L7.81289 1.24023ZM13.9879 1.24023L14.8517 0.736364C14.6725 0.429146 14.3436 0.240234 13.9879 0.240234V1.24023ZM15.6504 4.09023L14.7866 4.59411C14.9658 4.90132 15.2947 5.09023 15.6504 5.09023V4.09023ZM2.40039 16.2027V6.46523H0.400391V16.2027H2.40039ZM3.77539 5.09023H6.15039V3.09023H3.77539V5.09023ZM7.01417 4.59411L8.67667 1.74411L6.94911 0.736363L5.28661 3.58636L7.01417 4.59411ZM7.81289 2.24023H13.9879V0.240234H7.81289V2.24023ZM13.1241 1.74411L14.7866 4.59411L16.5142 3.58636L14.8517 0.736364L13.1241 1.74411ZM15.6504 5.09023H18.0254V3.09023H15.6504V5.09023ZM19.4004 6.46524V16.2027H21.4004V6.46524H19.4004ZM19.4004 16.2027C19.4004 16.9621 18.7848 17.5777 18.0254 17.5777V19.5777C19.8894 19.5777 21.4004 18.0667 21.4004 16.2027H19.4004ZM18.0254 5.09023C18.7848 5.09023 19.4004 5.70584 19.4004 6.46524H21.4004C21.4004 4.60127 19.8894 3.09023 18.0254 3.09023V5.09023ZM2.40039 6.46523C2.40039 5.70584 3.016 5.09023 3.77539 5.09023V3.09023C1.91143 3.09023 0.400391 4.60127 0.400391 6.46523H2.40039ZM3.77539 17.5777C3.016 17.5777 2.40039 16.9621 2.40039 16.2027H0.400391C0.400391 18.0667 1.91143 19.5777 3.77539 19.5777V17.5777ZM13.4629 10.7402C13.4629 12.1555 12.3156 13.3027 10.9004 13.3027V15.3027C13.4202 15.3027 15.4629 13.26 15.4629 10.7402H13.4629ZM10.9004 13.3027C9.48516 13.3027 8.33789 12.1555 8.33789 10.7402H6.33789C6.33789 13.26 8.38059 15.3027 10.9004 15.3027V13.3027ZM8.33789 10.7402C8.33789 9.32501 9.48516 8.17773 10.9004 8.17773V6.17773C8.38059 6.17773 6.33789 8.22044 6.33789 10.7402H8.33789ZM10.9004 8.17773C12.3156 8.17773 13.4629 9.32501 13.4629 10.7402H15.4629C15.4629 8.22044 13.4202 6.17773 10.9004 6.17773V8.17773ZM18.0254 17.5777H3.77539V19.5777H18.0254V17.5777Z" fill="#7E7267"/>
</svg>
